<?xml version="1.0" encoding="UTF-8"?>
<svg xmlns="http://www.w3.org/2000/svg"
     xmlns:xlink="http://www.w3.org/1999/xlink"
     xmlns:gadfly="http://www.gadflyjl.org/ns"
     version="1.2"
     width="141.42mm" height="100mm" viewBox="0 0 141.42 100"
     stroke="none"
     fill="#000000"
     stroke-width="0.3"
     font-size="3.88"
>
<g class="plotroot xscalable yscalable" id="fig-7aaa8130fd5d4b6da423c495113b6271-element-1">
  <g font-size="3.88" font-family="'PT Sans','Helvetica Neue','Helvetica',sans-serif" fill="#564A55" stroke="#000000" stroke-opacity="0.000" id="fig-7aaa8130fd5d4b6da423c495113b6271-element-2">
    <text x="73.61" y="88.39" text-anchor="middle" dy="0.6em">Years</text>
  </g>
  <g class="guide colorkey" id="fig-7aaa8130fd5d4b6da423c495113b6271-element-3">
    <g font-size="2.82" font-family="'PT Sans','Helvetica Neue','Helvetica',sans-serif" fill="#4C404B" id="fig-7aaa8130fd5d4b6da423c495113b6271-element-4">
      <text x="131.9" y="66.46" dy="0.35em">1</text>
      <text x="131.9" y="39.15" dy="0.35em">5</text>
      <text x="131.9" y="59.63" dy="0.35em">2</text>
      <text x="131.9" y="52.81" dy="0.35em">3</text>
      <text x="131.9" y="45.98" dy="0.35em">4</text>
    </g>
    <g shape-rendering="crispEdges" stroke="#000000" stroke-opacity="0.000" id="fig-7aaa8130fd5d4b6da423c495113b6271-element-5">
      <rect x="129.58" y="65.78" width="1.31" height="0.68" fill="#004D84"/>
      <rect x="129.58" y="65.1" width="1.31" height="0.68" fill="#005B8D"/>
      <rect x="129.58" y="64.41" width="1.31" height="0.68" fill="#006995"/>
      <rect x="129.58" y="63.73" width="1.31" height="0.68" fill="#00769D"/>
      <rect x="129.58" y="63.05" width="1.31" height="0.68" fill="#0083A3"/>
      <rect x="129.58" y="62.36" width="1.31" height="0.68" fill="#278FA9"/>
      <rect x="129.58" y="61.68" width="1.31" height="0.68" fill="#409BAF"/>
      <rect x="129.58" y="61" width="1.31" height="0.68" fill="#55A7B5"/>
      <rect x="129.58" y="60.32" width="1.31" height="0.68" fill="#69B2BA"/>
      <rect x="129.58" y="59.63" width="1.31" height="0.68" fill="#7BBCC0"/>
      <rect x="129.58" y="58.95" width="1.31" height="0.68" fill="#8DC6C5"/>
      <rect x="129.58" y="58.27" width="1.31" height="0.68" fill="#9ED0CB"/>
      <rect x="129.58" y="57.59" width="1.31" height="0.68" fill="#A5CFC7"/>
      <rect x="129.58" y="56.9" width="1.31" height="0.68" fill="#ABCEC4"/>
      <rect x="129.58" y="56.22" width="1.31" height="0.68" fill="#B1CCC2"/>
      <rect x="129.58" y="55.54" width="1.31" height="0.68" fill="#B5CCC1"/>
      <rect x="129.58" y="54.85" width="1.31" height="0.68" fill="#B7CBBF"/>
      <rect x="129.58" y="54.17" width="1.31" height="0.68" fill="#B9CBBD"/>
      <rect x="129.58" y="53.49" width="1.31" height="0.68" fill="#BBCBBB"/>
      <rect x="129.58" y="52.81" width="1.31" height="0.68" fill="#BDCABA"/>
      <rect x="129.58" y="52.12" width="1.31" height="0.68" fill="#BFCAB8"/>
      <rect x="129.58" y="51.44" width="1.31" height="0.68" fill="#C2C9B7"/>
      <rect x="129.58" y="50.76" width="1.31" height="0.68" fill="#C4C9B6"/>
      <rect x="129.58" y="50.07" width="1.31" height="0.68" fill="#C6C8B5"/>
      <rect x="129.58" y="49.39" width="1.31" height="0.68" fill="#C9C7B4"/>
      <rect x="129.58" y="48.71" width="1.31" height="0.68" fill="#CCC7B2"/>
      <rect x="129.58" y="48.03" width="1.31" height="0.68" fill="#CFC6AE"/>
      <rect x="129.58" y="47.34" width="1.31" height="0.68" fill="#D4C5AA"/>
      <rect x="129.58" y="46.66" width="1.31" height="0.68" fill="#D8C3A6"/>
      <rect x="129.58" y="45.98" width="1.31" height="0.68" fill="#D3B79A"/>
      <rect x="129.58" y="45.3" width="1.31" height="0.68" fill="#CDAB8E"/>
      <rect x="129.58" y="44.61" width="1.31" height="0.68" fill="#C89E82"/>
      <rect x="129.58" y="43.93" width="1.31" height="0.68" fill="#C19177"/>
      <rect x="129.58" y="43.25" width="1.31" height="0.68" fill="#BA836C"/>
      <rect x="129.58" y="42.56" width="1.31" height="0.68" fill="#B27563"/>
      <rect x="129.58" y="41.88" width="1.31" height="0.68" fill="#AA665A"/>
      <rect x="129.58" y="41.2" width="1.31" height="0.68" fill="#A05752"/>
      <rect x="129.58" y="40.52" width="1.31" height="0.68" fill="#96484A"/>
      <rect x="129.58" y="39.83" width="1.31" height="0.68" fill="#8B3844"/>
      <rect x="129.58" y="39.15" width="1.31" height="0.68" fill="#7E273E"/>
      <g stroke="#FFFFFF" stroke-width="0.2" id="fig-7aaa8130fd5d4b6da423c495113b6271-element-6">
        <path fill="none" d="M129.58,66.46 L 130.9 66.46"/>
        <path fill="none" d="M129.58,39.15 L 130.9 39.15"/>
        <path fill="none" d="M129.58,59.63 L 130.9 59.63"/>
        <path fill="none" d="M129.58,52.81 L 130.9 52.81"/>
        <path fill="none" d="M129.58,45.98 L 130.9 45.98"/>
      </g>
    </g>
    <g fill="#362A35" font-size="3.88" font-family="'PT Sans','Helvetica Neue','Helvetica',sans-serif" stroke="#000000" stroke-opacity="0.000" id="fig-7aaa8130fd5d4b6da423c495113b6271-element-7">
      <text x="129.58" y="35.15">Color</text>
    </g>
  </g>
  <g clip-path="url(#fig-7aaa8130fd5d4b6da423c495113b6271-element-9)" id="fig-7aaa8130fd5d4b6da423c495113b6271-element-8">
    <g pointer-events="visible" opacity="1" fill="#000000" fill-opacity="0.000" stroke="#000000" stroke-opacity="0.000" class="guide background" id="fig-7aaa8130fd5d4b6da423c495113b6271-element-10">
      <rect x="19.63" y="5" width="107.95" height="80.39"/>
    </g>
    <g class="guide ygridlines xfixed" stroke-dasharray="0.5,0.5" stroke-width="0.2" stroke="#D0D0E0" id="fig-7aaa8130fd5d4b6da423c495113b6271-element-11">
      <path fill="none" d="M19.63,83.39 L 127.58 83.39"/>
      <path fill="none" d="M19.63,64.29 L 127.58 64.29"/>
      <path fill="none" d="M19.63,45.19 L 127.58 45.19"/>
      <path fill="none" d="M19.63,26.1 L 127.58 26.1"/>
      <path fill="none" d="M19.63,7 L 127.58 7"/>
    </g>
    <g class="guide xgridlines yfixed" stroke-dasharray="0.5,0.5" stroke-width="0.2" stroke="#D0D0E0" id="fig-7aaa8130fd5d4b6da423c495113b6271-element-12">
      <path fill="none" d="M42.36,5 L 42.36 85.39"/>
      <path fill="none" d="M63.16,5 L 63.16 85.39"/>
      <path fill="none" d="M83.97,5 L 83.97 85.39"/>
      <path fill="none" d="M104.78,5 L 104.78 85.39"/>
      <path fill="none" d="M125.58,5 L 125.58 85.39"/>
    </g>
    <g class="plotpanel" id="fig-7aaa8130fd5d4b6da423c495113b6271-element-13">
      <g stroke-width="0.3" fill="#000000" fill-opacity="0.000" stroke-dasharray="none" id="fig-7aaa8130fd5d4b6da423c495113b6271-element-14">
        <path fill="none" d="M21.63,44.35 L 21.71 44.35 21.8 43.97 21.88 43.58 21.96 44.11 22.05 44.51 22.13 44.36 22.21 43.9 22.3 44.9 22.38 44.41 22.46 44.06 22.55 43.83 22.63 44.27 22.71 44.77 22.8 44.85 22.88 44.96 22.96 44.81 23.05 45.52 23.13 45.7 23.21 45.09 23.29 45.27 23.38 45.88 23.46 46.09 23.54 46.47 23.63 45.86 23.71 45.27 23.79 45.01 23.88 44.75 23.96 44.61 24.04 44.64 24.13 44.75 24.21 44.8 24.29 45.12 24.38 44.86 24.46 45.63 24.54 45.85 24.63 46.03 24.71 45.9 24.79 45.22 24.88 45.34 24.96 45.71 25.04 45.72 25.12 45.84 25.21 46.02 25.29 45.46 25.37 45.01 25.46 44.94 25.54 45.14 25.62 45.23 25.71 44.89 25.79 45.17 25.87 45.36 25.96 45.31 26.04 45.25 26.12 44.97 26.21 45.44 26.29 45.37 26.37 45.85 26.46 45.95 26.54 45.81 26.62 46.66 26.7 46.33 26.79 46.39 26.87 46.7 26.95 47 27.04 46.99 27.12 46.75 27.2 47.2 27.29 46.74 27.37 46.01 27.45 46.22 27.54 46.23 27.62 46.67 27.7 46.96 27.79 46.84 27.87 46.54 27.95 46.97 28.04 46.9 28.12 46.23 28.2 46.41 28.28 46.65 28.37 46.71 28.45 47.14 28.53 47.66 28.62 48.11 28.7 47.59 28.78 47.41 28.87 48.41 28.95 48.13 29.03 47.9 29.12 48.09 29.2 48.17 29.28 47.97 29.37 47.57 29.45 47.14 29.53 46.76 29.62 46.61 29.7 46.62 29.78 46.66 29.86 47 29.95 47.17 30.03 47.1 30.11 46.91 30.2 46.79 30.28 46.98 30.36 46.7 30.45 47.17 30.53 47.6 30.61 47.96 30.7 47.9 30.78 48.26 30.86 47.59 30.95 48.18 31.03 48.67 31.11 48.73 31.2 49.11 31.28 48.64 31.36 48.45 31.44 48.62 31.53 47.53 31.61 47.57 31.69 47.75 31.78 47.6 31.86 48.03 31.94 48.25 32.03 47.94 32.11 47.49 32.19 47.26 32.28 47.5 32.36 46.5 32.44 46.98 32.53 47.12 32.61 47.21 32.69 46.48 32.78 46.84 32.86 46.26 32.94 46.13 33.02 46.42 33.11 46.52 33.19 46.21 33.27 46.21 33.36 46.47 33.44 46.19 33.52 46.73 33.61 46.83 33.69 46.24 33.77 46.19 33.86 46.28 33.94 45.67 34.02 45.44 34.11 45.7 34.19 46.32 34.27 46.22 34.36 46.7 34.44 46.73 34.52 46.75 34.61 46.58 34.69 46.27 34.77 46.63 34.85 46.85 34.94 46.93 35.02 46.92 35.1 47 35.19 46.9 35.27 46.81 35.35 46.38 35.44 47.28 35.52 47.49 35.6 47.21 35.69 46.68 35.77 46.22 35.85 45.89 35.94 46.62 36.02 46.71 36.1 46.25 36.19 45.79 36.27 45.61 36.35 45.49 36.43 45.45 36.52 45.22 36.6 45.45 36.68 45.56 36.77 45.35 36.85 45.08 36.93 45.64 37.02 45.59 37.1 45.77 37.18 45.88 37.27 45.71 37.35 44.95 37.43 45.23 37.52 45.42 37.6 45.06 37.68 44.87 37.77 45.13 37.85 44.41 37.93 44.61 38.01 45.13 38.1 45.39 38.18 45.93 38.26 46.27 38.35 46.88 38.43 46.68 38.51 45.82 38.6 46.26 38.68 45.97 38.76 45.97 38.85 45.64 38.93 45.95 39.01 46.29 39.1 45.72 39.18 46.31 39.26 45.95 39.35 45.72 39.43 45.87 39.51 45.51 39.59 45.51 39.68 45.49 39.76 45.57 39.84 45.61 39.93 45.53 40.01 46.08 40.09 46.51 40.18 45.96 40.26 46.28 40.34 46.4 40.43 46.12 40.51 45.8 40.59 45.74 40.68 45.45 40.76 45.93 40.84 46.22 40.93 46.32 41.01 46.46 41.09 45.84 41.17 45.23 41.26 45.09 41.34 45.12 41.42 45.05 41.51 45.48 41.59 45.05 41.67 45.39 41.76 45.67 41.84 45.79 41.92 45.99 42.01 45.7 42.09 45.7 42.17 45.71 42.26 45.71 42.34 45.44 42.42 44.85 42.51 44.85 42.59 44.54 42.67 44.57 42.75 44.59 42.84 45.09 42.92 44.44 43 44.09 43.09 43.77 43.17 44.55 43.25 44.38 43.34 44.45 43.42 45.04 43.5 44.65 43.59 45.08 43.67 45.04 43.75 45.02 43.84 44.73 43.92 45.41 44 45.24 44.09 44.6 44.17 45.05 44.25 44.61 44.34 45.01 44.42 44.65 44.5 44.89 44.58 44.8 44.67 45.17 44.75 45.64 44.83 45.89 44.92 45.89 45 45.68 45.08 45.77 45.17 46.43 45.25 46.38 45.33 46.6 45.42 45.9 45.5 45.53 45.58 45.44 45.67 45.75 45.75 45.72 45.83 45.78 45.92 45.58 46 45.73 46.08 45.69 46.16 45.63 46.25 45.53 46.33 45.83 46.41 45.85 46.5 45.79 46.58 45.49 46.66 45.56 46.75 46 46.83 46.48 46.91 46.49 47 46.63 47.08 46.43 47.16 46.54 47.25 46.97 47.33 47.27 47.41 47.58 47.5 47.65 47.58 47.87 47.66 48.16 47.74 48.78 47.83 48.95 47.91 48.39 47.99 48.37 48.08 48.32 48.16 48.12 48.24 48.85 48.33 49.35 48.41 49.21 48.49 49.42 48.58 48.52 48.66 49.01 48.74 48.52 48.83 48.47 48.91 47.96 48.99 48.08 49.08 48.4 49.16 48.76 49.24 48.42 49.32 48.75 49.41 48.45 49.49 48.66 49.57 48.62 49.66 48.91 49.74 48.76 49.82 48.94 49.91 48.73 49.99 48.62 50.07 49.01 50.16 49 50.24 48.91 50.32 48.95 50.41 49.04 50.49 48.95 50.57 49.49 50.66 49.26 50.74 49.56 50.82 49.17 50.9 49.77 50.99 49.54 51.07 49.74 51.15 49.59 51.24 50.18 51.32 49.54 51.4 49.89 51.49 50.23 51.57 50.59 51.65 50.41 51.74 50.4 51.82 50.51 51.9 50.73 51.99 50.74 52.07 50.04 52.15 49.85 52.24 49.84 52.32 49.95 52.4 50.05 52.48 50.22 52.57 49.87 52.65 49.73 52.73 49.64 52.82 49.88 52.9 50.1 52.98 49.98 53.07 49.75 53.15 49.79 53.23 49.63 53.32 49.92 53.4 50.09 53.48 50.2 53.57 49.98 53.65 50.25 53.73 50.58 53.82 50.69 53.9 50.32 53.98 50.63 54.07 50.94 54.15 50.59 54.23 49.84 54.31 50.17 54.4 49.78 54.48 49.69 54.56 49.39 54.65 49.71 54.73 50.15 54.81 50.1 54.9 49.38 54.98 49.06 55.06 48.86 55.15 48.22 55.23 47.92 55.31 48.48 55.4 48.24 55.48 47.92 55.56 48.48 55.65 49.12 55.73 49 55.81 48.94 55.89 49.34 55.98 49.5 56.06 49.21 56.14 49.49 56.23 49.39 56.31 49.13 56.39 49.77 56.48 49.82 56.56 50.16 56.64 50.32 56.73 50.13 56.81 50.06 56.89 50.43 56.98 50.69 57.06 50.37 57.14 50.35 57.23 50.6 57.31 50.4 57.39 49.85 57.47 50.42 57.56 50.17 57.64 49.95 57.72 49.72 57.81 49.37 57.89 49.4 57.97 49.37 58.06 49.95 58.14 50.15 58.22 50.35 58.31 51.12 58.39 51.29 58.47 51.56 58.56 51.37 58.64 51.11 58.72 50.8 58.81 50.97 58.89 51.2 58.97 50.56 59.05 50.28 59.14 50.07 59.22 49.53 59.3 49.68 59.39 50.13 59.47 50.17 59.55 50.38 59.64 50.03 59.72 49.93 59.8 50.02 59.89 50.15 59.97 49.8 60.05 49.87 60.14 50.34 60.22 50.55 60.3 50.15 60.39 49.7 60.47 50.15 60.55 50.01 60.63 50.09 60.72 50.42 60.8 51.05 60.88 50.65 60.97 50.54 61.05 50.34 61.13 49.99 61.22 50.81 61.3 51.28 61.38 51.43 61.47 51.12 61.55 51.82 61.63 52.12 61.72 52.25 61.8 52.34 61.88 52.54 61.97 52.69 62.05 52.91 62.13 52.61 62.21 52.6 62.3 52.67 62.38 52.36 62.46 52.21 62.55 52.63 62.63 52.54 62.71 52.41 62.8 52.17 62.88 52.73 62.96 53.01 63.05 53.27 63.13 53.62 63.21 53.69 63.3 53.69 63.38 53.32 63.46 53.6 63.55 53.62 63.63 53.23 63.71 53.61 63.8 53.73 63.88 53.44 63.96 54.18 64.04 54.35 64.13 54.46 64.21 54.29 64.29 54.8 64.38 54.88 64.46 55.14 64.54 55.43 64.63 55.47 64.71 55.06 64.79 55.34 64.88 55.48 64.96 55.26 65.04 55.73 65.13 56.1 65.21 55.81 65.29 55.75 65.38 55.87 65.46 56.23 65.54 56.05 65.62 55.99 65.71 56.05 65.79 55.82 65.87 56.1 65.96 55.77 66.04 55.79 66.12 55.55 66.21 54.92 66.29 55.03 66.37 54.91 66.46 54.69 66.54 54.71 66.62 55.09 66.71 54.68 66.79 54.89 66.87 55.12 66.96 54.85 67.04 54.78 67.12 55.03 67.2 55.32 67.29 55.12 67.37 55.3 67.45 55.21 67.54 55.22 67.62 55.36 67.7 55.66 67.79 55.88 67.87 55.92 67.95 55.77 68.04 55.67 68.12 55.65 68.2 55.65 68.29 55.41 68.37 55.42 68.45 55.01 68.54 55.29 68.62 55.31 68.7 55.4 68.78 55.81 68.87 56.29 68.95 56.11 69.03 56.03 69.12 55.6 69.2 55.84 69.28 55.43 69.37 54.98 69.45 54.98 69.53 55.33 69.62 55.69 69.7 55.65 69.78 55.68 69.87 55.45 69.95 55.4 70.03 55.17 70.12 55.66 70.2 55.63 70.28 55.92 70.36 56.08 70.45 55.94 70.53 55.77 70.61 55.74 70.7 55.89 70.78 56.47 70.86 56.51 70.95 56.24 71.03 56.82 71.11 56.66 71.2 56.55 71.28 56.54 71.36 56.58 71.45 56.56 71.53 56.57 71.61 56.9 71.7 57.15 71.78 56.81 71.86 57.03 71.94 56.92 72.03 57.29 72.11 57.37 72.19 57.63 72.28 57.76 72.36 57.79 72.44 57.66 72.53 57.32 72.61 57.06 72.69 57.18 72.78 57.72 72.86 57.78 72.94 57.45 73.03 58.11 73.11 57.56 73.19 57.32 73.28 57.47 73.36 57.34 73.44 57.7 73.53 57.55 73.61 57.79 73.69 57.91 73.77 57.79 73.86 57.71 73.94 58.01 74.02 57.94 74.11 58.06 74.19 58.03 74.27 58.19 74.36 57.99 74.44 58.36 74.52 58.65 74.61 58.83 74.69 59.07 74.77 59.17 74.86 59.1 74.94 59.49 75.02 59.24 75.11 59.13 75.19 59.08 75.27 59.15 75.35 59.1 75.44 59.55 75.52 59.66 75.6 60.06 75.69 60.29 75.77 60.69 75.85 60.69 75.94 60.9 76.02 60.93 76.1 60.91 76.19 61.16 76.27 61.59 76.35 61.78 76.44 61.55 76.52 61.76 76.6 61.53 76.69 61.46 76.77 61.71 76.85 61.26 76.93 60.83 77.02 60.85 77.1 60.86 77.18 61.12 77.27 61.33 77.35 61.46 77.43 61.45 77.52 61.59 77.6 61.87 77.68 61.74 77.77 61.99 77.85 62.02 77.93 62.44 78.02 62.41 78.1 62.4 78.18 62.18 78.27 61.81 78.35 61.83 78.43 61.71 78.51 61.35 78.6 61.5 78.68 61.5 78.76 61.58 78.85 61.59 78.93 61.39 79.01 61.2 79.1 61.43 79.18 61.63 79.26 61.71 79.35 61.71 79.43 61.67 79.51 61.68 79.6 61.59 79.68 61.17 79.76 61.06 79.85 60.75 79.93 60.56 80.01 60.44 80.09 60.57 80.18 60.65 80.26 60.74 80.34 60.61 80.43 60.6 80.51 60.58 80.59 60.6 80.68 60.87 80.76 60.59 80.84 60.41 80.93 60.36 81.01 60.51 81.09 60.45 81.18 60.61 81.26 60.49 81.34 60.25 81.43 60.64 81.51 60.25 81.59 60.29 81.67 60.06 81.76 60.04 81.84 60.24 81.92 60.09 82.01 60.52 82.09 60.57 82.17 60.88 82.26 60.82 82.34 60.95 82.42 60.98 82.51 61.19 82.59 61.22 82.67 61.27 82.76 61.54 82.84 61.5 82.92 62.02 83.01 62.11 83.09 62.01 83.17 62.04 83.26 62.14 83.34 61.94 83.42 62.12 83.5 62.23 83.59 62.14 83.67 62.15 83.75 61.99 83.84 62.04 83.92 61.93 84 61.84 84.09 61.84 84.17 61.59 84.25 61.58 84.34 61.6 84.42 61.53 84.5 61.37 84.59 61.46 84.67 61.15 84.75 61.14 84.84 61.2 84.92 60.87 85 61.12 85.08 61.09 85.17 60.74 85.25 60.58 85.33 60.89 85.42 60.99 85.5 61.05 85.58 60.67 85.67 60.74 85.75 60.51 85.83 60.2 85.92 60.55 86 60.1 86.08 60.14 86.17 60.11 86.25 59.92 86.33 59.88 86.42 59.74 86.5 59.76 86.58 59.79 86.66 59.71 86.75 59.6 86.83 59.64 86.91 59.66 87 59.88 87.08 59.8 87.16 59.63 87.25 59.91 87.33 59.74 87.41 59.96 87.5 60.19 87.58 60.24 87.66 60.39 87.75 60.37 87.83 60.56 87.91 60.48 88 60.85 88.08 60.73 88.16 60.37 88.24 60.2 88.33 60.71 88.41 60.87 88.49 60.99 88.58 60.99 88.66 60.83 88.74 60.61 88.83 60.72 88.91 60.79 88.99 60.71 89.08 60.9 89.16 61 89.24 61.03 89.33 60.95 89.41 60.93 89.49 60.75 89.58 60.8 89.66 60.86 89.74 60.6 89.82 60.35 89.91 60.06 89.99 60.25 90.07 60.84 90.16 60.6 90.24 60.64 90.32 60.33 90.41 60.62 90.49 60.76 90.57 60.62 90.66 60.77 90.74 60.51 90.82 60.6 90.91 60.7 90.99 60.63 91.07 60.45 91.16 60.68 91.24 61.03 91.32 61.17 91.4 61.14 91.49 60.76 91.57 60.75 91.65 61.04 91.74 60.63 91.82 60.6 91.9 60.79 91.99 60.84 92.07 61.06 92.15 60.99 92.24 60.99 92.32 61.02 92.4 61.31 92.49 61.25 92.57 61.39 92.65 61.22 92.74 60.98 92.82 61.17 92.9 61.21 92.99 61.16 93.07 61.19 93.15 61.27 93.23 61.52 93.32 61.23 93.4 61.15 93.48 61.16 93.57 61.55 93.65 61.64 93.73 61.5 93.82 61.28 93.9 61.35 93.98 61.28 94.07 61.15 94.15 61.23 94.23 61.56 94.32 61.28 94.4 61.25 94.48 61.39 94.57 61.22 94.65 61.14 94.73 61.39 94.81 61.5 94.9 61.42 94.98 61.25 95.06 60.95 95.15 61.06 95.23 60.93 95.31 60.92 95.4 61.05 95.48 60.9 95.56 60.57 95.65 60.1 95.73 59.62 95.81 59.72 95.9 59.85 95.98 59.93 96.06 60.07 96.15 60.14 96.23 60.32 96.31 60.4 96.39 60.54 96.48 60.69 96.56 60.76 96.64 61.17 96.73 61.2 96.81 61.41 96.89 61.5 96.98 61.69 97.06 61.51 97.14 61.5 97.23 61.65 97.31 61.74 97.39 61.47 97.48 61.73 97.56 61.64 97.64 61.29 97.73 61.85 97.81 61.98 97.89 62.33 97.97 62.12 98.06 62.21 98.14 61.92 98.22 62.26 98.31 62.04 98.39 61.79 98.47 61.7 98.56 61.42 98.64 61.23 98.72 61.04 98.81 61.24 98.89 61.53 98.97 61.29 99.06 61.11 99.14 61.12 99.22 60.81 99.31 61.14 99.39 61.31 99.47 61.38 99.55 60.9 99.64 61.02 99.72 60.64 99.8 60.71 99.89 60.66 99.97 60.46 100.05 60.79 100.14 60.81 100.22 60.43 100.3 60.53 100.39 60.63 100.47 61.06 100.55 60.98 100.64 60.73 100.72 60.43 100.8 60.67 100.89 60.52 100.97 60.74 101.05 60.59 101.13 60.37 101.22 60.33 101.3 60.02 101.38 59.79 101.47 59.67 101.55 59.6 101.63 59.57 101.72 59.2 101.8 59.35 101.88 59.26 101.97 59.17 102.05 59.1 102.13 59.76 102.22 59.97 102.3 60.2 102.38 59.94 102.47 59.79 102.55 59.81 102.63 59.96 102.72 59.93 102.8 60.24 102.88 59.79 102.96 59.5 103.05 59.82 103.13 59.71 103.21 59.38 103.3 59.55 103.38 59.31 103.46 58.44 103.55 58.32 103.63 57.92 103.71 58.29 103.8 58.49 103.88 58.4 103.96 58.08 104.05 58.17 104.13 58.51 104.21 58.27 104.3 58.54 104.38 58.16 104.46 58.38 104.54 58.51 104.63 58.58 104.71 58.46 104.79 58.09 104.88 58.09 104.96 57.7 105.04 57.43 105.13 57.61 105.21 57.36 105.29 57.55 105.38 57.27 105.46 57.46 105.54 57.67 105.63 57.61 105.71 57.6 105.79 57.05 105.88 57.09 105.96 57.35 106.04 57.34 106.12 57.5 106.21 57.6 106.29 57.29 106.37 57.14 106.46 57.56 106.54 57.32 106.62 57.2 106.71 57 106.79 56.59 106.87 56.81 106.96 56.27 107.04 56.2 107.12 56.64 107.21 56.64 107.29 56.69 107.37 56.77 107.46 56.25 107.54 56.28 107.62 56.13 107.7 56.03 107.79 55.85 107.87 55.51 107.95 55.35 108.04 55.06 108.12 55.27 108.2 55.28 108.29 54.94 108.37 54.48 108.45 54.41 108.54 53.92 108.62 54 108.7 54.41 108.79 54.67 108.87 54.35 108.95 54.36 109.04 54.37 109.12 54.18 109.2 54.49 109.28 54.84 109.37 54.66 109.45 54.99 109.53 55.02 109.62 55.39 109.7 55.41 109.78 56.03 109.87 56.07 109.95 56.03 110.03 56.13 110.12 55.86 110.2 55.26 110.28 55.27 110.37 55.07 110.45 54.62 110.53 54.77 110.62 54.91 110.7 55.02 110.78 55.1 110.86 55.14 110.95 55.64 111.03 55.3 111.11 55.01 111.2 54.88 111.28 55 111.36 55.31 111.45 55.35 111.53 55.47 111.61 55.88 111.7 55.73 111.78 55.77 111.86 55.96 111.95 56.17 112.03 55.96 112.11 56.41 112.2 56.03 112.28 55.81 112.36 55.28 112.45 55.76 112.53 56.06 112.61 56.16 112.69 56.09 112.78 56.29 112.86 56.26 112.94 56.13 113.03 56.08 113.11 56.07 113.19 56.01 113.28 55.97 113.36 56.47 113.44 56.67 113.53 56.78 113.61 56.98 113.69 56.93 113.78 56.94 113.86 57.2 113.94 57 114.03 57.2 114.11 57.77 114.19 58.01 114.27 58.13 114.36 57.78 114.44 57.56 114.52 57.5 114.61 58.07 114.69 57.83 114.77 57.88 114.86 57.42 114.94 57.43 115.02 57.69 115.11 57.4 115.19 57.12 115.27 56.72 115.36 56.33 115.44 56.84 115.52 56.7 115.61 56.24 115.69 56.02 115.77 55.97 115.85 55.91 115.94 55.66 116.02 55.49 116.1 55.56 116.19 55.74 116.27 55.53 116.35 55.62 116.44 55.57 116.52 55.5 116.6 55.46 116.69 55.23 116.77 55.72 116.85 55.54 116.94 55.83 117.02 56.07 117.1 55.99 117.19 55.7 117.27 55.82 117.35 55.8 117.43 55.87 117.52 56.05 117.6 56.35 117.68 56.46 117.77 56.08 117.85 56.27 117.93 56.79 118.02 56.87 118.1 57 118.18 56.77 118.27 56.7 118.35 56.77 118.43 56.4 118.52 56.2 118.6 56.02 118.68 56.1 118.77 56.17 118.85 56.23 118.93 56.16 119.01 56.53 119.1 56.65 119.18 57 119.26 57.27 119.35 57.4 119.43 57.52 119.51 57.72 119.6 57.62 119.68 57.31 119.76 57 119.85 57.33 119.93 57.16 120.01 57.13 120.1 56.81 120.18 56.92 120.26 56.77 120.35 56.48 120.43 56.14 120.51 56.23 120.59 55.89 120.68 55.94 120.76 56.22 120.84 56.42 120.93 56.75 121.01 56.56 121.09 56.66 121.18 56.6 121.26 56.71 121.34 56.54 121.43 56.67 121.51 57.05 121.59 56.91 121.68 56.59 121.76 56.18 121.84 56.04 121.93 56.22 122.01 55.95 122.09 55.8 122.18 55.66 122.26 55.75 122.34 55.87 122.42 55.9 122.51 55.94 122.59 56.12 122.67 55.9 122.76 55.87 122.84 55.87 122.92 55.54 123.01 55.7 123.09 55.98 123.17 55.96 123.26 55.37 123.34 55.75 123.42 55.57 123.51 55.62 123.59 55.76 123.67 55.33 123.76 54.85 123.84 54.95 123.92 55.16 124 55.23 124.09 55.27 124.17 54.93 124.25 54.79 124.34 54.71 124.42 54.56 124.5 54.32 124.59 54.57 124.67 54.27 124.75 53.94 124.84 53.77 124.92 54.14 125 54.45 125.09 54.65 125.17 54.54 125.25 54 125.34 54.46 125.42 53.95 125.5 54.29 125.58 54.27" class="geometry color_" stroke="#004D84"/>
        <path fill="none" d="M21.63,44.35 L 21.71 44.35 21.8 44.74 21.88 45.14 21.96 45.24 22.05 45.18 22.13 45.09 22.21 45.31 22.3 45.29 22.38 45.45 22.46 45.57 22.55 45.4 22.63 45.56 22.71 45.7 22.8 45.07 22.88 45.15 22.96 45.06 23.05 44.89 23.13 44.84 23.21 44.6 23.29 43.86 23.38 43.07 23.46 43.2 23.54 43.5 23.63 43.42 23.71 44.02 23.79 43.97 23.88 44.62 23.96 43.89 24.04 43.92 24.13 44.59 24.21 44.17 24.29 43.44 24.38 43.63 24.46 43.78 24.54 43.49 24.63 43.6 24.71 43.76 24.79 43.74 24.88 44.13 24.96 44.19 25.04 44.45 25.12 44.49 25.21 44.45 25.29 44.08 25.37 44.61 25.46 44.05 25.54 43.42 25.62 43.22 25.71 43.61 25.79 43.03 25.87 42.75 25.96 42.35 26.04 42.88 26.12 43.25 26.21 43.25 26.29 43.77 26.37 43.71 26.46 43.6 26.54 43.91 26.62 44.39 26.7 44.51 26.79 44.27 26.87 44.41 26.95 44.8 27.04 44.86 27.12 44.75 27.2 44.27 27.29 44.2 27.37 44.31 27.45 44.4 27.54 44.62 27.62 44.4 27.7 44.86 27.79 44.88 27.87 45.08 27.95 45.08 28.04 44.59 28.12 44.93 28.2 45.15 28.28 45.06 28.37 44.52 28.45 44.23 28.53 43.64 28.62 44.31 28.7 44.34 28.78 44.23 28.87 44.38 28.95 43.88 29.03 43.87 29.12 43.53 29.2 43.46 29.28 43.51 29.37 42.7 29.45 43.12 29.53 43.13 29.62 42.93 29.7 43.07 29.78 42.84 29.86 43.1 29.95 42.46 30.03 42.56 30.11 44.06 30.2 43.74 30.28 43.1 30.36 43.03 30.45 43.71 30.53 44.1 30.61 43.78 30.7 43.42 30.78 43.56 30.86 43.74 30.95 43.66 31.03 43.83 31.11 44.76 31.2 45.03 31.28 45.06 31.36 45.03 31.44 45.53 31.53 46.22 31.61 46.72 31.69 46.7 31.78 46.95 31.86 46.89 31.94 46.96 32.03 47.78 32.11 47.52 32.19 47.81 32.28 48.77 32.36 49.04 32.44 49.48 32.53 48.95 32.61 49.13 32.69 49.15 32.78 49.28 32.86 48.56 32.94 48.3 33.02 48.35 33.11 48.41 33.19 48.14 33.27 48.04 33.36 48.31 33.44 48.4 33.52 48.55 33.61 48.49 33.69 49.32 33.77 49.33 33.86 49.01 33.94 49.42 34.02 50.03 34.11 50.43 34.19 51.11 34.27 51.2 34.36 51.23 34.44 51.28 34.52 51.24 34.61 50.93 34.69 50.93 34.77 50.84 34.85 50.33 34.94 49.71 35.02 49.75 35.1 48.82 35.19 48.67 35.27 48.22 35.35 48.13 35.44 48.05 35.52 48.1 35.6 47.92 35.69 48 35.77 48.4 35.85 48.39 35.94 48.48 36.02 48.58 36.1 48.8 36.19 48.6 36.27 49.54 36.35 49.73 36.43 49.4 36.52 49.39 36.6 49.74 36.68 49.69 36.77 49.46 36.85 49.73 36.93 49.53 37.02 50.27 37.1 50.09 37.18 50.45 37.27 50.05 37.35 50.63 37.43 50.97 37.52 50.89 37.6 50.42 37.68 49.71 37.77 50.37 37.85 50.23 37.93 49.71 38.01 49.88 38.1 50.1 38.18 49.88 38.26 50.3 38.35 50.03 38.43 49.98 38.51 49.56 38.6 49.24 38.68 49.2 38.76 49.54 38.85 49.69 38.93 49.32 39.01 48.83 39.1 48.57 39.18 48.69 39.26 48.58 39.35 48.58 39.43 48.74 39.51 48.57 39.59 48.94 39.68 49.11 39.76 49.59 39.84 49.84 39.93 49.62 40.01 50.19 40.09 50 40.18 49.79 40.26 50.15 40.34 50.38 40.43 50.2 40.51 50.19 40.59 50.44 40.68 50.76 40.76 50.74 40.84 50.68 40.93 51.22 41.01 50.92 41.09 50.85 41.17 51.06 41.26 50.84 41.34 51.05 41.42 51.6 41.51 51.73 41.59 52.09 41.67 52.48 41.76 51.83 41.84 52.3 41.92 52.12 42.01 52.26 42.09 52.55 42.17 52.65 42.26 52.49 42.34 52.36 42.42 52.47 42.51 52.47 42.59 51.99 42.67 52.25 42.75 52.2 42.84 51.74 42.92 51.4 43 51.19 43.09 51.35 43.17 51.4 43.25 51.24 43.34 50.99 43.42 51.3 43.5 51.34 43.59 51.58 43.67 51.71 43.75 51.7 43.84 52.02 43.92 52.23 44 51.95 44.09 52.16 44.17 52.09 44.25 51.82 44.34 52.01 44.42 52.29 44.5 52.68 44.58 52.53 44.67 52.5 44.75 52.9 44.83 52.83 44.92 52.74 45 53.01 45.08 53 45.17 52.94 45.25 52.9 45.33 53.14 45.42 53.22 45.5 53.46 45.58 53.13 45.67 53.67 45.75 53.85 45.83 53.91 45.92 54.31 46 54.61 46.08 54.34 46.16 54.17 46.25 53.76 46.33 53.75 46.41 53.61 46.5 53.75 46.58 53.34 46.66 53.68 46.75 53.83 46.83 54.2 46.91 54.54 47 54.62 47.08 54.59 47.16 54.77 47.25 54.62 47.33 54.13 47.41 53.95 47.5 53.9 47.58 53.83 47.66 53.64 47.74 53.84 47.83 53.57 47.91 53.85 47.99 54.17 48.08 54.07 48.16 54.55 48.24 54.36 48.33 53.92 48.41 53.72 48.49 53.8 48.58 54.28 48.66 53.67 48.74 53.8 48.83 53.77 48.91 54.05 48.99 54.09 49.08 54.08 49.16 54.36 49.24 54.58 49.32 54.74 49.41 54.72 49.49 54.45 49.57 54.36 49.66 54.36 49.74 54.61 49.82 54.37 49.91 54.21 49.99 54.12 50.07 54.26 50.16 54.36 50.24 54.28 50.32 54.21 50.41 54.77 50.49 55.17 50.57 54.9 50.66 55.22 50.74 54.64 50.82 54.81 50.9 55.06 50.99 55.46 51.07 55.28 51.15 55.19 51.24 55.34 51.32 55.22 51.4 54.68 51.49 54.23 51.57 54.1 51.65 54.26 51.74 54.27 51.82 54.13 51.9 54.15 51.99 53.95 52.07 54.39 52.15 54.14 52.24 54.32 52.32 54.32 52.4 54.38 52.48 53.85 52.57 53.86 52.65 54.17 52.73 54.52 52.82 54.42 52.9 54.45 52.98 54.66 53.07 54.49 53.15 54.64 53.23 54.95 53.32 55.09 53.4 55.16 53.48 55.28 53.57 55.43 53.65 54.87 53.73 54.74 53.82 54.75 53.9 54.76 53.98 54.88 54.07 54.75 54.15 54.17 54.23 54.07 54.31 54.7 54.4 54.57 54.48 54.33 54.56 55.14 54.65 55.61 54.73 56.13 54.81 55.8 54.9 55.61 54.98 55.7 55.06 55.48 55.15 55.58 55.23 55.9 55.31 55.84 55.4 55.37 55.48 55.2 55.56 55.57 55.65 55.77 55.73 55.7 55.81 55.69 55.89 55.65 55.98 55.64 56.06 55.79 56.14 55.64 56.23 55.22 56.31 55.2 56.39 55.35 56.48 55.3 56.56 55.1 56.64 55.37 56.73 55.28 56.81 55.83 56.89 55.86 56.98 55.61 57.06 55.88 57.14 55.92 57.23 55.85 57.31 55.94 57.39 56.25 57.47 56.26 57.56 56.36 57.64 56.21 57.72 56.07 57.81 56.47 57.89 56.26 57.97 56.01 58.06 55.82 58.14 55.47 58.22 54.89 58.31 55.22 58.39 55.18 58.47 55.01 58.56 54.97 58.64 55.01 58.72 55 58.81 55 58.89 54.48 58.97 54.6 59.05 54.28 59.14 53.95 59.22 53.88 59.3 53.94 59.39 54.17 59.47 53.76 59.55 53.2 59.64 53.37 59.72 53.48 59.8 53.51 59.89 53.67 59.97 53.87 60.05 53.62 60.14 53.41 60.22 53.37 60.3 53.4 60.39 53.59 60.47 53.43 60.55 53.35 60.63 53.71 60.72 53.6 60.8 53.73 60.88 53.96 60.97 54.11 61.05 54.66 61.13 54.38 61.22 53.87 61.3 54.23 61.38 54.23 61.47 54.09 61.55 53.58 61.63 52.99 61.72 52.86 61.8 52.72 61.88 52.73 61.97 52.99 62.05 52.9 62.13 52.68 62.21 52.86 62.3 53.21 62.38 53.48 62.46 52.84 62.55 53.13 62.63 53.17 62.71 53.5 62.8 53.36 62.88 53.46 62.96 53.26 63.05 52.92 63.13 52.65 63.21 52.45 63.3 52.45 63.38 52.77 63.46 53.09 63.55 53.33 63.63 53.4 63.71 52.72 63.8 52.94 63.88 52.88 63.96 53.16 64.04 53.08 64.13 53.27 64.21 52.74 64.29 52.45 64.38 52.02 64.46 51.71 64.54 51.78 64.63 51.46 64.71 51.64 64.79 51.36 64.88 51.34 64.96 51.03 65.04 50.79 65.13 50.75 65.21 50.72 65.29 50.93 65.38 50.81 65.46 51.19 65.54 50.86 65.62 50.53 65.71 50.71 65.79 50.52 65.87 50.62 65.96 50.15 66.04 49.93 66.12 50.49 66.21 50.86 66.29 50.25 66.37 50.51 66.46 50.28 66.54 50.74 66.62 50.58 66.71 50.41 66.79 50.39 66.87 50.66 66.96 50.68 67.04 50.4 67.12 50.75 67.2 50.24 67.29 50.52 67.37 50.63 67.45 50.65 67.54 51.07 67.62 51.1 67.7 51.18 67.79 51.19 67.87 50.93 67.95 51.14 68.04 51.4 68.12 51.18 68.2 50.72 68.29 50.35 68.37 49.82 68.45 49.79 68.54 50 68.62 50.07 68.7 50.31 68.78 50.66 68.87 51.08 68.95 51.17 69.03 51.56 69.12 51.53 69.2 51.77 69.28 51.88 69.37 52.17 69.45 52.4 69.53 52.07 69.62 52.53 69.7 52.54 69.78 51.94 69.87 51.99 69.95 51.95 70.03 52.06 70.12 52.34 70.2 52.67 70.28 52.91 70.36 52.86 70.45 53.3 70.53 53.65 70.61 53.54 70.7 53.74 70.78 53.41 70.86 53.18 70.95 53.18 71.03 52.96 71.11 52.7 71.2 52.6 71.28 52.56 71.36 52.69 71.45 52.79 71.53 52.71 71.61 52.78 71.7 52.81 71.78 52.59 71.86 52.61 71.94 52.26 72.03 52.16 72.11 52.29 72.19 52.26 72.28 51.56 72.36 52.43 72.44 52.62 72.53 52.03 72.61 51.82 72.69 51.99 72.78 52.34 72.86 52.01 72.94 51.78 73.03 51.67 73.11 51.54 73.19 51.52 73.28 51.58 73.36 51.72 73.44 51.76 73.53 51.78 73.61 52.05 73.69 52.47 73.77 52.41 73.86 52.77 73.94 52.35 74.02 52.23 74.11 52.26 74.19 52.49 74.27 52.58 74.36 52.51 74.44 52.6 74.52 52.9 74.61 53.25 74.69 52.96 74.77 53.3 74.86 53.38 74.94 53.53 75.02 53.55 75.11 53.42 75.19 53.38 75.27 53.26 75.35 53.41 75.44 53.76 75.52 53.96 75.6 53.92 75.69 53.65 75.77 53.73 75.85 53.61 75.94 54.28 76.02 54.59 76.1 54.77 76.19 54.54 76.27 54.56 76.35 54.94 76.44 55.15 76.52 55.53 76.6 55.45 76.69 55.48 76.77 55.29 76.85 55.23 76.93 55.37 77.02 55.21 77.1 55.13 77.18 55.35 77.27 55.13 77.35 54.82 77.43 54.99 77.52 54.93 77.6 54.82 77.68 54.84 77.77 54.83 77.85 54.59 77.93 54.49 78.02 54.49 78.1 54.95 78.18 54.93 78.27 55.07 78.35 54.53 78.43 55.06 78.51 55.34 78.6 55.44 78.68 55.29 78.76 55.23 78.85 55.15 78.93 54.98 79.01 54.86 79.1 55.09 79.18 55.4 79.26 55.17 79.35 55.37 79.43 55.67 79.51 56 79.6 56.62 79.68 56.58 79.76 56.69 79.85 56.43 79.93 56.45 80.01 56.45 80.09 56.43 80.18 56.64 80.26 56.83 80.34 56.56 80.43 56.75 80.51 56.55 80.59 56.39 80.68 56.17 80.76 56.37 80.84 56.33 80.93 56.53 81.01 56.66 81.09 56.79 81.18 56.64 81.26 56.28 81.34 56.66 81.43 56.87 81.51 56.76 81.59 56.72 81.67 56.8 81.76 56.86 81.84 57.25 81.92 57.23 82.01 57.13 82.09 57.45 82.17 57.87 82.26 58.31 82.34 58.16 82.42 58.27 82.51 58.13 82.59 58.12 82.67 58.39 82.76 58.72 82.84 58.99 82.92 59.09 83.01 58.98 83.09 58.63 83.17 58.78 83.26 58.77 83.34 58.53 83.42 58.63 83.5 58.85 83.59 59.23 83.67 59.07 83.75 59.01 83.84 59.24 83.92 59.16 84 59.03 84.09 59.03 84.17 59.01 84.25 59.08 84.34 58.79 84.42 58.71 84.5 59.02 84.59 59.03 84.67 59.09 84.75 59.66 84.84 59.58 84.92 59.78 85 59.54 85.08 59.56 85.17 59.41 85.25 59.88 85.33 59.78 85.42 60.08 85.5 60.14 85.58 60.59 85.67 60.9 85.75 60.98 85.83 60.94 85.92 61.49 86 61.2 86.08 61.37 86.17 61.5 86.25 61.79 86.33 61.83 86.42 61.61 86.5 61.68 86.58 61.87 86.66 61.85 86.75 61.99 86.83 62.09 86.91 62.06 87 61.88 87.08 61.55 87.16 61.64 87.25 61.49 87.33 61.42 87.41 61.9 87.5 61.53 87.58 61.58 87.66 61.56 87.75 61.39 87.83 61.2 87.91 61.27 88 61.13 88.08 60.91 88.16 60.59 88.24 60.64 88.33 60.43 88.41 60.55 88.49 60.83 88.58 60.78 88.66 60.47 88.74 60.74 88.83 60.97 88.91 61.23 88.99 61.22 89.08 61.15 89.16 61.06 89.24 61.39 89.33 61.57 89.41 61.54 89.49 61.42 89.58 61.45 89.66 61.4 89.74 61.41 89.82 61.85 89.91 62.35 89.99 62.47 90.07 62.31 90.16 62.16 90.24 61.99 90.32 61.98 90.41 62.11 90.49 62.25 90.57 61.8 90.66 61.75 90.74 61.95 90.82 62.31 90.91 62.41 90.99 62.62 91.07 62.56 91.16 62.68 91.24 62.67 91.32 62.58 91.4 62.75 91.49 62.86 91.57 62.71 91.65 62.61 91.74 62.5 91.82 62.33 91.9 62.35 91.99 62.03 92.07 61.94 92.15 62.04 92.24 62.15 92.32 62.21 92.4 62.48 92.49 62.54 92.57 62.67 92.65 62.69 92.74 62.44 92.82 62.56 92.9 63.03 92.99 62.62 93.07 62.54 93.15 62.79 93.23 63.24 93.32 62.92 93.4 62.68 93.48 62.62 93.57 62.63 93.65 62.44 93.73 62.48 93.82 62.82 93.9 62.85 93.98 62.47 94.07 62.66 94.15 62.16 94.23 61.74 94.32 61.93 94.4 61.77 94.48 61.62 94.57 61.71 94.65 61.8 94.73 61.89 94.81 61.77 94.9 61.8 94.98 61.5 95.06 61.33 95.15 61.31 95.23 60.77 95.31 61.21 95.4 61.03 95.48 60.95 95.56 60.9 95.65 60.64 95.73 60.34 95.81 60.35 95.9 60.43 95.98 60.24 96.06 60.12 96.15 59.71 96.23 59.94 96.31 60.31 96.39 60.33 96.48 60.46 96.56 60.86 96.64 60.63 96.73 60.74 96.81 60.47 96.89 60.61 96.98 60.6 97.06 60.83 97.14 60.88 97.23 60.67 97.31 60.72 97.39 60.55 97.48 60.74 97.56 60.58 97.64 60 97.73 60.24 97.81 60.1 97.89 60.07 97.97 59.84 98.06 59.62 98.14 59.76 98.22 59.82 98.31 60.51 98.39 60.04 98.47 60.19 98.56 60.03 98.64 60.13 98.72 60.05 98.81 60.13 98.89 60.53 98.97 60.25 99.06 60.12 99.14 60.26 99.22 60.62 99.31 60.71 99.39 60.85 99.47 60.57 99.55 60.83 99.64 60.85 99.72 61.36 99.8 61.56 99.89 61.79 99.97 61.96 100.05 61.91 100.14 61.99 100.22 61.84 100.3 62.19 100.39 62.19 100.47 62.26 100.55 62.58 100.64 62.68 100.72 62.76 100.8 62.88 100.89 62.77 100.97 62.5 101.05 62.36 101.13 62.02 101.22 62.3 101.3 62.48 101.38 62.43 101.47 62.3 101.55 62.36 101.63 62.25 101.72 62.47 101.8 62.18 101.88 62.33 101.97 62.71 102.05 62.89 102.13 62.82 102.22 62.61 102.3 62.45 102.38 62.39 102.47 62.91 102.55 62.56 102.63 62.27 102.72 62.26 102.8 62.04 102.88 62.13 102.96 62.04 103.05 62.05 103.13 62.09 103.21 62.06 103.3 61.98 103.38 62.37 103.46 62.58 103.55 62.48 103.63 62.33 103.71 62.46 103.8 62.74 103.88 62.47 103.96 62.29 104.05 62.22 104.13 62.12 104.21 62.27 104.3 62.35 104.38 62.3 104.46 62.55 104.54 62.62 104.63 62.74 104.71 62.56 104.79 62.26 104.88 62.26 104.96 61.79 105.04 61.68 105.13 62.06 105.21 61.99 105.29 61.92 105.38 61.8 105.46 61.56 105.54 61.27 105.63 61.28 105.71 61.58 105.79 61.88 105.88 62.05 105.96 62.05 106.04 62.12 106.12 62.3 106.21 62.05 106.29 61.92 106.37 61.96 106.46 62.15 106.54 62.38 106.62 62.67 106.71 62.81 106.79 62.58 106.87 62.67 106.96 62.76 107.04 62.76 107.12 62.45 107.21 62.89 107.29 62.78 107.37 62.67 107.46 62.6 107.54 62.55 107.62 62.29 107.7 62.39 107.79 62.41 107.87 62.64 107.95 62.54 108.04 62.53 108.12 62.65 108.2 62.59 108.29 62.25 108.37 62.19 108.45 62.12 108.54 61.86 108.62 62.03 108.7 62.2 108.79 62.26 108.87 62.08 108.95 62.13 109.04 62.21 109.12 62.33 109.2 62.36 109.28 62.14 109.37 62.53 109.45 62.71 109.53 62.81 109.62 62.71 109.7 62.84 109.78 62.96 109.87 63.08 109.95 63.01 110.03 62.97 110.12 62.98 110.2 63.14 110.28 63.5 110.37 63.41 110.45 63.46 110.53 63.18 110.62 62.84 110.7 62.74 110.78 62.69 110.86 62.98 110.95 62.74 111.03 62.87 111.11 62.72 111.2 62.5 111.28 62.46 111.36 62.71 111.45 62.47 111.53 62.53 111.61 62.91 111.7 63.16 111.78 63 111.86 63.01 111.95 63.21 112.03 62.76 112.11 62.62 112.2 62.5 112.28 62.48 112.36 62.38 112.45 62.26 112.53 62.6 112.61 62.77 112.69 62.8 112.78 62.81 112.86 62.79 112.94 62.61 113.03 62.45 113.11 62.69 113.19 62.78 113.28 62.98 113.36 63.51 113.44 63.37 113.53 63.53 113.61 63.86 113.69 63.84 113.78 63.7 113.86 63.65 113.94 63.59 114.03 63.53 114.11 63.52 114.19 63.57 114.27 63.8 114.36 63.88 114.44 63.86 114.52 64.02 114.61 64.1 114.69 63.86 114.77 64.22 114.86 64 114.94 63.89 115.02 64.07 115.11 64.15 115.19 64.17 115.27 64.53 115.36 64.49 115.44 64.51 115.52 64.34 115.61 64.48 115.69 64.57 115.77 64.59 115.85 64.63 115.94 64.73 116.02 64.45 116.1 64.7 116.19 64.64 116.27 64.63 116.35 64.82 116.44 64.88 116.52 64.78 116.6 64.77 116.69 64.74 116.77 64.88 116.85 64.93 116.94 64.79 117.02 65 117.1 65.33 117.19 65.12 117.27 65.07 117.35 65.01 117.43 64.83 117.52 64.41 117.6 64.2 117.68 64.18 117.77 64.36 117.85 64.55 117.93 64.52 118.02 64.46 118.1 64.25 118.18 64.2 118.27 64.33 118.35 64.23 118.43 64.22 118.52 63.98 118.6 63.98 118.68 63.94 118.77 64.08 118.85 64.13 118.93 63.86 119.01 63.95 119.1 63.82 119.18 63.91 119.26 63.9 119.35 64.17 119.43 64.19 119.51 64.36 119.6 64.4 119.68 64.11 119.76 63.96 119.85 63.74 119.93 63.71 120.01 63.84 120.1 63.88 120.18 63.45 120.26 63.46 120.35 63.21 120.43 62.97 120.51 62.98 120.59 63.17 120.68 62.99 120.76 62.8 120.84 63.03 120.93 62.7 121.01 62.46 121.09 62.56 121.18 62.88 121.26 62.84 121.34 62.67 121.43 62.6 121.51 62.52 121.59 62.71 121.68 62.71 121.76 62.58 121.84 62.45 121.93 62.44 122.01 62.01 122.09 61.58 122.18 61.67 122.26 61.72 122.34 61.6 122.42 61.57 122.51 61.33 122.59 61.44 122.67 61.61 122.76 61.53 122.84 61.29 122.92 61.42 123.01 61.65 123.09 61.61 123.17 61.58 123.26 61.64 123.34 61.78 123.42 61.56 123.51 61.46 123.59 61.81 123.67 61.64 123.76 61.17 123.84 60.91 123.92 61.22 124 61.24 124.09 61.14 124.17 60.9 124.25 61 124.34 60.75 124.42 60.67 124.5 60.48 124.59 60.99 124.67 60.79 124.75 60.43 124.84 60.46 124.92 60.15 125 59.84 125.09 59.6 125.17 59.65 125.25 60.01 125.34 60.25 125.42 59.96 125.5 59.92 125.58 59.77" class="geometry color_" stroke="#7E273E"/>
        <path fill="none" d="M21.63,44.35 L 21.71 44.35 21.8 44.07 21.88 43.57 21.96 43.38 22.05 43.86 22.13 43.72 22.21 43.82 22.3 43.43 22.38 43.42 22.46 43.84 22.55 43.94 22.63 44.38 22.71 44.29 22.8 44.8 22.88 45.21 22.96 44.91 23.05 45.03 23.13 44.67 23.21 44.74 23.29 44.82 23.38 44.39 23.46 44.44 23.54 43.95 23.63 43.34 23.71 43.36 23.79 43.62 23.88 43.16 23.96 43.73 24.04 43.89 24.13 43.97 24.21 44.09 24.29 44.15 24.38 44.4 24.46 44.46 24.54 44.57 24.63 44.84 24.71 44.89 24.79 44.86 24.88 45.38 24.96 45.69 25.04 45.34 25.12 45.33 25.21 44.81 25.29 44.77 25.37 45.07 25.46 45.2 25.54 45.35 25.62 45.11 25.71 44.82 25.79 44.61 25.87 44.81 25.96 44.77 26.04 44.03 26.12 44.49 26.21 44.89 26.29 44.95 26.37 44.94 26.46 44.71 26.54 44.42 26.62 44.62 26.7 43.89 26.79 43.72 26.87 43.75 26.95 43.89 27.04 43.79 27.12 43.87 27.2 43.97 27.29 44.53 27.37 44.58 27.45 44.46 27.54 44.55 27.62 44.78 27.7 45.39 27.79 45.79 27.87 46.12 27.95 45.77 28.04 46.29 28.12 46.32 28.2 45.9 28.28 45.44 28.37 45.71 28.45 46.22 28.53 45.97 28.62 45.45 28.7 45.76 28.78 45.41 28.87 45.42 28.95 45.64 29.03 46.13 29.12 46.43 29.2 46.69 29.28 46.37 29.37 46.17 29.45 46.34 29.53 46.53 29.62 46.63 29.7 46.44 29.78 46.13 29.86 45.88 29.95 46.06 30.03 46.34 30.11 46.56 30.2 45.87 30.28 46.19 30.36 46.63 30.45 46.87 30.53 46.82 30.61 46.68 30.7 47.2 30.78 47.45 30.86 47.55 30.95 47.58 31.03 46.98 31.11 47.24 31.2 47.03 31.28 47.32 31.36 47.26 31.44 47.89 31.53 48.34 31.61 47.96 31.69 47.25 31.78 47.61 31.86 48.05 31.94 47.72 32.03 48.22 32.11 48.13 32.19 47.9 32.28 47.56 32.36 47.95 32.44 48.77 32.53 48.23 32.61 48.27 32.69 48.32 32.78 48.78 32.86 48.4 32.94 48.58 33.02 48.33 33.11 48.69 33.19 48.85 33.27 48.91 33.36 48.83 33.44 48.92 33.52 48.84 33.61 48.88 33.69 49.06 33.77 48.94 33.86 48.96 33.94 48.96 34.02 49.18 34.11 49.05 34.19 48.73 34.27 48.46 34.36 47.96 34.44 47.47 34.52 47.26 34.61 46.93 34.69 46.17 34.77 46.89 34.85 46.89 34.94 46.7 35.02 46.51 35.1 46.71 35.19 46.9 35.27 47.17 35.35 47.07 35.44 47.12 35.52 46.84 35.6 46.83 35.69 46.5 35.77 46.94 35.85 46.47 35.94 46.19 36.02 45.94 36.1 46.03 36.19 46.28 36.27 46.59 36.35 46.66 36.43 47.17 36.52 47.22 36.6 47.16 36.68 47.19 36.77 46.99 36.85 47.58 36.93 47.97 37.02 47.98 37.1 47.88 37.18 47.73 37.27 47.97 37.35 47.88 37.43 47.62 37.52 47.61 37.6 47.39 37.68 47.79 37.77 48.01 37.85 48.27 37.93 48.3 38.01 48.87 38.1 49 38.18 49.44 38.26 49.22 38.35 48.9 38.43 49.88 38.51 50.4 38.6 49.99 38.68 50.6 38.76 50.97 38.85 50.75 38.93 50.59 39.01 50.97 39.1 50.87 39.18 51.18 39.26 50.98 39.35 51.14 39.43 51.9 39.51 51.65 39.59 52.18 39.68 52.03 39.76 52.56 39.84 52.41 39.93 52.56 40.01 53.09 40.09 52.87 40.18 52.95 40.26 53.1 40.34 53.35 40.43 53.35 40.51 53.43 40.59 53.15 40.68 53.04 40.76 52.59 40.84 52.66 40.93 52.63 41.01 52.72 41.09 52.74 41.17 52.91 41.26 53.16 41.34 52.83 41.42 52.54 41.51 52.92 41.59 52.68 41.67 52.55 41.76 52.63 41.84 52.96 41.92 52.9 42.01 52.97 42.09 52.99 42.17 53.16 42.26 52.89 42.34 53.05 42.42 53.35 42.51 53.35 42.59 53.78 42.67 53.45 42.75 53.41 42.84 53.15 42.92 52.75 43 52.83 43.09 52.51 43.17 52.49 43.25 52.42 43.34 52.14 43.42 52.47 43.5 52.51 43.59 52.93 43.67 52.49 43.75 52 43.84 51.48 43.92 51.39 44 51.57 44.09 51.67 44.17 52.44 44.25 52.56 44.34 52.38 44.42 52.53 44.5 52.52 44.58 52.76 44.67 52.79 44.75 53.25 44.83 53.59 44.92 53.83 45 53.92 45.08 53.71 45.17 53.59 45.25 53.59 45.33 53.53 45.42 53.31 45.5 53.4 45.58 53.31 45.67 53.91 45.75 53.79 45.83 53.64 45.92 54.26 46 54.31 46.08 53.79 46.16 54.4 46.25 54.49 46.33 55.03 46.41 54.72 46.5 54.93 46.58 55 46.66 55.31 46.75 55.35 46.83 55.64 46.91 56.12 47 56.74 47.08 57.13 47.16 56.77 47.25 56.52 47.33 56.42 47.41 56.53 47.5 56.17 47.58 56.16 47.66 55.69 47.74 55.54 47.83 55.39 47.91 55.46 47.99 55.34 48.08 55.16 48.16 55.26 48.24 55.11 48.33 54.88 48.41 55.21 48.49 54.96 48.58 55.2 48.66 55.24 48.74 54.83 48.83 55.04 48.91 55.32 48.99 55.17 49.08 55.03 49.16 54.77 49.24 54.65 49.32 54.49 49.41 54.11 49.49 54.25 49.57 54.08 49.66 54.23 49.74 53.81 49.82 53.63 49.91 53.88 49.99 53.66 50.07 53.87 50.16 54.56 50.24 54.72 50.32 55.08 50.41 54.91 50.49 54.7 50.57 54.72 50.66 54.79 50.74 54.85 50.82 54.93 50.9 55.24 50.99 55.22 51.07 55.08 51.15 54.76 51.24 54.75 51.32 54.73 51.4 54.68 51.49 54.69 51.57 54.66 51.65 54.69 51.74 54.6 51.82 55.08 51.9 55.49 51.99 55.75 52.07 55.67 52.15 55.49 52.24 55.24 52.32 55.67 52.4 55.68 52.48 55.57 52.57 55.98 52.65 56.32 52.73 56.32 52.82 55.89 52.9 55.98 52.98 56.26 53.07 55.92 53.15 56.14 53.23 56.04 53.32 56.16 53.4 56.14 53.48 56.11 53.57 56.37 53.65 56.13 53.73 55.81 53.82 56.01 53.9 55.88 53.98 56.14 54.07 56.16 54.15 56.27 54.23 55.92 54.31 56.15 54.4 56.04 54.48 55.66 54.56 55.52 54.65 55.33 54.73 55.45 54.81 55.42 54.9 55.44 54.98 55.41 55.06 55.18 55.15 55.23 55.23 55.17 55.31 54.89 55.4 55.04 55.48 55.02 55.56 54.92 55.65 54.98 55.73 54.88 55.81 54.48 55.89 54.31 55.98 53.81 56.06 53.93 56.14 54.26 56.23 54.15 56.31 54.34 56.39 54.84 56.48 54.43 56.56 54.57 56.64 54.38 56.73 54.45 56.81 54.34 56.89 54.53 56.98 54.64 57.06 54.97 57.14 54.8 57.23 54.7 57.31 55.21 57.39 55.41 57.47 55.35 57.56 55.01 57.64 55.02 57.72 54.96 57.81 55.92 57.89 56.53 57.97 56.93 58.06 56.85 58.14 56.89 58.22 57.02 58.31 56.75 58.39 56.96 58.47 57.07 58.56 57.17 58.64 56.9 58.72 56.85 58.81 56.68 58.89 56.81 58.97 56.99 59.05 57.04 59.14 56.83 59.22 56.7 59.3 56.02 59.39 56.12 59.47 56.3 59.55 56.1 59.64 56.32 59.72 56.31 59.8 56.57 59.89 56.91 59.97 57.18 60.05 57.03 60.14 57.08 60.22 56.95 60.3 57.25 60.39 57.17 60.47 57.06 60.55 57.01 60.63 57.07 60.72 57.28 60.8 57.69 60.88 57.9 60.97 57.87 61.05 57.53 61.13 57.6 61.22 57.55 61.3 57.36 61.38 57.49 61.47 57.65 61.55 57.59 61.63 56.87 61.72 56.93 61.8 56.87 61.88 56.86 61.97 56.97 62.05 56.39 62.13 55.98 62.21 55.94 62.3 55.82 62.38 55.92 62.46 55.94 62.55 55.57 62.63 56.01 62.71 55.55 62.8 55.38 62.88 55.36 62.96 54.98 63.05 55.17 63.13 54.96 63.21 54.79 63.3 54.79 63.38 54.56 63.46 54.65 63.55 54.65 63.63 54.75 63.71 54.63 63.8 54.74 63.88 54.78 63.96 54.36 64.04 54.27 64.13 54.67 64.21 54.13 64.29 53.93 64.38 53.72 64.46 53.68 64.54 53.53 64.63 53.36 64.71 53.62 64.79 53.54 64.88 54.11 64.96 54.15 65.04 53.88 65.13 54.48 65.21 54.41 65.29 54.9 65.38 54.77 65.46 54.51 65.54 54.31 65.62 54.18 65.71 54.57 65.79 54.56 65.87 54.43 65.96 53.88 66.04 53.68 66.12 53.48 66.21 53.3 66.29 53.18 66.37 53.15 66.46 53.31 66.54 52.99 66.62 52.93 66.71 52.94 66.79 52.96 66.87 53.17 66.96 53.4 67.04 53.53 67.12 53.14 67.2 53.4 67.29 53.79 67.37 53.65 67.45 53.85 67.54 53.96 67.62 54.06 67.7 54.25 67.79 54.02 67.87 54.46 67.95 54.49 68.04 54.58 68.12 54.27 68.2 54.21 68.29 54.71 68.37 54.66 68.45 54.66 68.54 54.56 68.62 54.63 68.7 54.71 68.78 54.63 68.87 54.08 68.95 54.45 69.03 54.19 69.12 54.31 69.2 54.01 69.28 53.66 69.37 53.69 69.45 53.44 69.53 53.22 69.62 53 69.7 53.24 69.78 53.41 69.87 53.63 69.95 53.56 70.03 53.75 70.12 54.01 70.2 53.74 70.28 53.84 70.36 53.67 70.45 54.05 70.53 53.52 70.61 53.3 70.7 53.69 70.78 53.88 70.86 53.6 70.95 53.02 71.03 53.42 71.11 53.41 71.2 53.65 71.28 53.66 71.36 53.62 71.45 53.71 71.53 53.03 71.61 53.18 71.7 52.3 71.78 52.1 71.86 52.29 71.94 52.69 72.03 52.83 72.11 52.59 72.19 52.51 72.28 52.48 72.36 52.21 72.44 52.09 72.53 52.31 72.61 52.51 72.69 52.12 72.78 51.6 72.86 51.07 72.94 50.97 73.03 50.6 73.11 50.4 73.19 50.64 73.28 50.32 73.36 50.21 73.44 50.34 73.53 50.32 73.61 50.67 73.69 51.2 73.77 51.46 73.86 50.84 73.94 50.52 74.02 50.4 74.11 50.62 74.19 50.68 74.27 51.36 74.36 51.29 74.44 51.65 74.52 51.38 74.61 51.82 74.69 51.54 74.77 51.95 74.86 51.84 74.94 52.15 75.02 51.85 75.11 51.89 75.19 51.2 75.27 51.16 75.35 51.16 75.44 51.67 75.52 51.87 75.6 51.93 75.69 51.79 75.77 51.92 75.85 52 75.94 52.17 76.02 52.11 76.1 52.06 76.19 51.92 76.27 52.42 76.35 52.47 76.44 52.46 76.52 53 76.6 52.94 76.69 52.98 76.77 53.54 76.85 53.69 76.93 53.41 77.02 53.38 77.1 53.46 77.18 52.96 77.27 52.63 77.35 52.81 77.43 52.43 77.52 53.04 77.6 53.68 77.68 53.09 77.77 52.65 77.85 52.32 77.93 52.34 78.02 52.62 78.1 52.57 78.18 53.01 78.27 53.33 78.35 53.39 78.43 53.3 78.51 53.31 78.6 53.13 78.68 52.83 78.76 52.61 78.85 52.28 78.93 52.04 79.01 52.2 79.1 52.57 79.18 52.47 79.26 52.03 79.35 52.04 79.43 51.87 79.51 51.8 79.6 52.02 79.68 52.11 79.76 51.56 79.85 51.1 79.93 51.03 80.01 51.25 80.09 50.98 80.18 50.67 80.26 50.12 80.34 50.68 80.43 51.41 80.51 51.59 80.59 51.38 80.68 51.28 80.76 50.76 80.84 50.62 80.93 50.4 81.01 50.47 81.09 50.72 81.18 50.77 81.26 50.51 81.34 49.69 81.43 49.6 81.51 49.19 81.59 49.55 81.67 49.8 81.76 49.66 81.84 49.53 81.92 49.96 82.01 50.06 82.09 50.44 82.17 50.33 82.26 50.35 82.34 50.46 82.42 50.67 82.51 51.36 82.59 51.45 82.67 51.59 82.76 51.13 82.84 50.87 82.92 50.55 83.01 50.79 83.09 51.37 83.17 51.17 83.26 51.15 83.34 51.06 83.42 51.76 83.5 51.27 83.59 51.99 83.67 52.17 83.75 52.61 83.84 52.76 83.92 52.65 84 52.54 84.09 52.54 84.17 52.87 84.25 53.17 84.34 52.9 84.42 53.06 84.5 52.76 84.59 53.52 84.67 53.57 84.75 53.9 84.84 53.93 84.92 53.88 85 54.34 85.08 54.24 85.17 54.65 85.25 55.27 85.33 55.01 85.42 55.07 85.5 55.23 85.58 54.97 85.67 55.02 85.75 54.96 85.83 54.87 85.92 55.13 86 55.2 86.08 54.8 86.17 54.86 86.25 54.88 86.33 54.72 86.42 54.71 86.5 54.7 86.58 54.83 86.66 54.93 86.75 54.78 86.83 54.71 86.91 54.47 87 54.79 87.08 54.61 87.16 54.76 87.25 54.89 87.33 54.85 87.41 54.31 87.5 54.39 87.58 54.12 87.66 54.29 87.75 54.44 87.83 54.28 87.91 53.59 88 53.19 88.08 53.2 88.16 52.75 88.24 52.91 88.33 53.03 88.41 53.12 88.49 53.69 88.58 53.72 88.66 53.49 88.74 53.9 88.83 54.04 88.91 54.29 88.99 54.08 89.08 54.58 89.16 54.73 89.24 54.27 89.33 54.38 89.41 53.84 89.49 54.3 89.58 54.03 89.66 54.05 89.74 54.3 89.82 54.03 89.91 53.84 89.99 53.74 90.07 54.03 90.16 54.5 90.24 54.17 90.32 54.39 90.41 54.67 90.49 54.7 90.57 54.78 90.66 54.48 90.74 54.13 90.82 54.03 90.91 53.97 90.99 53.63 91.07 53.85 91.16 53.8 91.24 54.04 91.32 53.66 91.4 53.81 91.49 53.73 91.57 53.53 91.65 53.79 91.74 53.51 91.82 53.66 91.9 53.82 91.99 53.77 92.07 53.93 92.15 54.42 92.24 54.34 92.32 53.86 92.4 53.84 92.49 53.7 92.57 53.02 92.65 52.88 92.74 53.05 92.82 53.07 92.9 53.83 92.99 53.77 93.07 54.08 93.15 54.32 93.23 54.01 93.32 54.09 93.4 54.36 93.48 54.25 93.57 54.14 93.65 54.23 93.73 54.06 93.82 54.01 93.9 53.79 93.98 53.78 94.07 53.79 94.15 53.81 94.23 53.7 94.32 54.56 94.4 54.32 94.48 54.54 94.57 54.57 94.65 54.58 94.73 55.1 94.81 54.65 94.9 54.61 94.98 54.98 95.06 55.19 95.15 55.47 95.23 55.75 95.31 55.99 95.4 55.72 95.48 55.57 95.56 55.36 95.65 55.21 95.73 55.24 95.81 55.53 95.9 55.7 95.98 55.38 96.06 55.3 96.15 55.18 96.23 55.39 96.31 55.36 96.39 55.47 96.48 55.48 96.56 55.29 96.64 55.19 96.73 55.07 96.81 54.99 96.89 55.42 96.98 55.05 97.06 55.03 97.14 55.16 97.23 55 97.31 54.84 97.39 54.96 97.48 54.86 97.56 54.91 97.64 54.9 97.73 55.21 97.81 55.01 97.89 55.15 97.97 55.25 98.06 55.26 98.14 55.15 98.22 55.65 98.31 55.73 98.39 55.5 98.47 55.27 98.56 55.78 98.64 55.62 98.72 55.97 98.81 56.45 98.89 56.71 98.97 56.88 99.06 56.44 99.14 56.31 99.22 56.22 99.31 56.01 99.39 56.13 99.47 55.88 99.55 55.64 99.64 55.27 99.72 55.25 99.8 55.04 99.89 54.82 99.97 55.17 100.05 54.96 100.14 54.68 100.22 54.8 100.3 54.57 100.39 54.59 100.47 55.05 100.55 54.73 100.64 54.84 100.72 54.5 100.8 54.6 100.89 54.57 100.97 54.26 101.05 54.3 101.13 54.19 101.22 54.29 101.3 54.52 101.38 54.26 101.47 54.38 101.55 54.53 101.63 54.13 101.72 53.96 101.8 53.85 101.88 53.58 101.97 53.74 102.05 53.99 102.13 53.41 102.22 53.49 102.3 53.03 102.38 52.77 102.47 52.53 102.55 52.06 102.63 52.02 102.72 52.66 102.8 52.41 102.88 52.2 102.96 52.26 103.05 52.41 103.13 52.7 103.21 53.17 103.3 53.02 103.38 52.63 103.46 52.87 103.55 52.59 103.63 52.78 103.71 52.78 103.8 52.96 103.88 53.48 103.96 53.18 104.05 53.19 104.13 52.71 104.21 52.7 104.3 53.06 104.38 52.75 104.46 52.72 104.54 52.86 104.63 52.79 104.71 52.51 104.79 52.67 104.88 52.67 104.96 52.3 105.04 52.07 105.13 52.38 105.21 52.96 105.29 53.28 105.38 53.4 105.46 53 105.54 53.39 105.63 52.92 105.71 53.59 105.79 53.45 105.88 53.88 105.96 53.76 106.04 54.11 106.12 54.4 106.21 54.74 106.29 54.71 106.37 54.73 106.46 54.77 106.54 54.86 106.62 55.06 106.71 54.75 106.79 54.66 106.87 55.11 106.96 55.06 107.04 55.06 107.12 55.27 107.21 55.17 107.29 55.55 107.37 55.29 107.46 55.51 107.54 55.55 107.62 55.51 107.7 55.2 107.79 55.57 107.87 55.6 107.95 55.76 108.04 56.06 108.12 56.02 108.2 55.71 108.29 55.26 108.37 55.24 108.45 54.67 108.54 54.46 108.62 54.35 108.7 54.68 108.79 54.55 108.87 54.16 108.95 54.3 109.04 54.16 109.12 54.48 109.2 54.38 109.28 54.15 109.37 54.67 109.45 54.92 109.53 54.88 109.62 54.5 109.7 54.73 109.78 54.94 109.87 55.47 109.95 55.52 110.03 56.01 110.12 55.82 110.2 56 110.28 55.45 110.37 55.58 110.45 55.48 110.53 55.97 110.62 55.57 110.7 55.66 110.78 55.74 110.86 55.94 110.95 56.03 111.03 56.31 111.11 56.33 111.2 56.73 111.28 56.65 111.36 56.43 111.45 56.06 111.53 55.58 111.61 55.43 111.7 55.02 111.78 54.47 111.86 54.38 111.95 53.77 112.03 54.59 112.11 54.88 112.2 55.09 112.28 54.73 112.36 55.35 112.45 55.53 112.53 55.33 112.61 55.34 112.69 55.3 112.78 55.32 112.86 55.57 112.94 55.42 113.03 55.78 113.11 55.7 113.19 55.46 113.28 55.56 113.36 55.84 113.44 55.56 113.53 55.14 113.61 54.52 113.69 54.6 113.78 54.76 113.86 54.72 113.94 54.78 114.03 54.16 114.11 54.31 114.19 54.32 114.27 54.44 114.36 54.1 114.44 54.51 114.52 54.47 114.61 54.5 114.69 54.56 114.77 54.55 114.86 54.43 114.94 54.58 115.02 54.49 115.11 54.69 115.19 54.59 115.27 54.61 115.36 54.91 115.44 54.9 115.52 54.31 115.61 54.24 115.69 53.66 115.77 53.44 115.85 53.41 115.94 53.27 116.02 52.79 116.1 52.71 116.19 52.76 116.27 52.7 116.35 52.41 116.44 52.52 116.52 52.3 116.6 52.12 116.69 52.81 116.77 52.53 116.85 52.53 116.94 52.62 117.02 53.31 117.1 52.91 117.19 53.2 117.27 53.15 117.35 52.88 117.43 52.86 117.52 52.56 117.6 52.55 117.68 52.81 117.77 53.05 117.85 53.14 117.93 52.68 118.02 52.33 118.1 52.37 118.18 52.27 118.27 52.08 118.35 51.97 118.43 51.76 118.52 51.77 118.6 51.53 118.68 51.89 118.77 51.79 118.85 51.92 118.93 52.19 119.01 51.78 119.1 51.77 119.18 51.61 119.26 52.29 119.35 52.04 119.43 51.92 119.51 52.16 119.6 51.75 119.68 51.54 119.76 51.71 119.85 51.48 119.93 51.61 120.01 51.8 120.1 51.91 120.18 52.14 120.26 52.28 120.35 51.87 120.43 52.16 120.51 52.24 120.59 52.52 120.68 52.78 120.76 53.09 120.84 53.54 120.93 53.25 121.01 53.66 121.09 53.53 121.18 53.65 121.26 53.45 121.34 54.13 121.43 53.79 121.51 54.08 121.59 53.97 121.68 53.95 121.76 54.32 121.84 54.37 121.93 54.55 122.01 54.38 122.09 54.4 122.18 54.32 122.26 54.23 122.34 54.5 122.42 54.6 122.51 54.63 122.59 54.67 122.67 54.7 122.76 54.8 122.84 54.94 122.92 54.82 123.01 54.85 123.09 55.15 123.17 55.08 123.26 54.49 123.34 54.71 123.42 54.73 123.51 54.81 123.59 54.82 123.67 54.34 123.76 53.94 123.84 53.72 123.92 53.67 124 53.22 124.09 53.55 124.17 54.15 124.25 54.28 124.34 54.16 124.42 54.33 124.5 53.89 124.59 53.66 124.67 53.47 124.75 53.29 124.84 53.45 124.92 53.26 125 52.99 125.09 53.13 125.17 53.26 125.25 52.94 125.34 52.83 125.42 53.14 125.5 53.11 125.58 52.86" class="geometry color_" stroke="#88C4C4"/>
        <path fill="none" d="M21.63,44.35 L 21.71 44.35 21.8 43.82 21.88 43.35 21.96 43.62 22.05 43.41 22.13 43.51 22.21 43.12 22.3 43.17 22.38 43.28 22.46 43.12 22.55 43.57 22.63 43.75 22.71 43.63 22.8 43.98 22.88 43.62 22.96 43.35 23.05 43.91 23.13 43.7 23.21 43.69 23.29 43.56 23.38 43.1 23.46 42.4 23.54 42.32 23.63 41.86 23.71 41.8 23.79 41.96 23.88 41.58 23.96 41.58 24.04 41.28 24.13 41.33 24.21 41.47 24.29 42.07 24.38 41.85 24.46 41.49 24.54 41.28 24.63 41.2 24.71 40.51 24.79 40.83 24.88 41.52 24.96 41.24 25.04 40.84 25.12 40.88 25.21 40.52 25.29 40.31 25.37 40.02 25.46 40.27 25.54 40.01 25.62 39.5 25.71 39.12 25.79 39.49 25.87 39.58 25.96 39.03 26.04 39.65 26.12 39.3 26.21 38.4 26.29 38.48 26.37 37.79 26.46 38.67 26.54 38.72 26.62 38.51 26.7 37.99 26.79 37.51 26.87 38 26.95 38.93 27.04 40.04 27.12 39.6 27.2 40.1 27.29 39.59 27.37 40.61 27.45 40.38 27.54 40.78 27.62 40.93 27.7 40.87 27.79 40.21 27.87 40.01 27.95 40.13 28.04 40.52 28.12 41.19 28.2 41.39 28.28 40.64 28.37 40.43 28.45 40.12 28.53 40.09 28.62 39.89 28.7 39.28 28.78 38.87 28.87 38.37 28.95 38.06 29.03 38.13 29.12 37.91 29.2 37.97 29.28 38.41 29.37 37.79 29.45 37.43 29.53 37.73 29.62 37.14 29.7 37.01 29.78 37.35 29.86 38.33 29.95 38.47 30.03 38.95 30.11 39.03 30.2 38.83 30.28 38.36 30.36 38.38 30.45 38.73 30.53 38.59 30.61 38.35 30.7 38.39 30.78 38.76 30.86 38.39 30.95 38.07 31.03 38.59 31.11 37.94 31.2 38.01 31.28 37.75 31.36 38.02 31.44 38.64 31.53 38.95 31.61 39.85 31.69 40.43 31.78 40.51 31.86 41.07 31.94 41.35 32.03 41.35 32.11 42.09 32.19 42.06 32.28 42.72 32.36 43.36 32.44 43.35 32.53 42.11 32.61 42.05 32.69 42.11 32.78 42.49 32.86 42.71 32.94 42.87 33.02 42.73 33.11 42.66 33.19 42.45 33.27 43.18 33.36 42.83 33.44 42.3 33.52 42.45 33.61 42.02 33.69 42.7 33.77 43.11 33.86 42.7 33.94 42.28 34.02 41.78 34.11 41.2 34.19 41.35 34.27 41.99 34.36 41.89 34.44 41.63 34.52 41.88 34.61 41.92 34.69 41.77 34.77 41.87 34.85 42.01 34.94 41.82 35.02 42.38 35.1 42.11 35.19 42.32 35.27 41.71 35.35 41.14 35.44 41.57 35.52 41.47 35.6 41.16 35.69 41.46 35.77 41.77 35.85 42.38 35.94 42.65 36.02 41.59 36.1 41.68 36.19 41.08 36.27 40.61 36.35 40.61 36.43 40.52 36.52 40.38 36.6 39.92 36.68 39.28 36.77 39.67 36.85 39.31 36.93 39.8 37.02 39.64 37.1 38.95 37.18 38.78 37.27 38.29 37.35 38.85 37.43 39.28 37.52 39.68 37.6 39.76 37.68 39.35 37.77 39.41 37.85 39.68 37.93 39.39 38.01 38.83 38.1 38.34 38.18 37.49 38.26 37.61 38.35 36.62 38.43 36.75 38.51 35.54 38.6 35.5 38.68 34.91 38.76 34.37 38.85 35.17 38.93 35.08 39.01 35.28 39.1 35.12 39.18 35.33 39.26 35.92 39.35 36.39 39.43 36.28 39.51 35.95 39.59 35.86 39.68 35.85 39.76 36.27 39.84 35.76 39.93 35.02 40.01 34.67 40.09 34.56 40.18 34.29 40.26 33.88 40.34 33.39 40.43 32.52 40.51 32.43 40.59 32.21 40.68 31.44 40.76 30.78 40.84 31.24 40.93 31.2 41.01 30.66 41.09 31.18 41.17 30.54 41.26 31.36 41.34 30.24 41.42 30.84 41.51 30.62 41.59 31.3 41.67 31.37 41.76 30.73 41.84 30.25 41.92 30.77 42.01 31.69 42.09 32.8 42.17 32.62 42.26 32.83 42.34 32.62 42.42 32.67 42.51 32.67 42.59 32.36 42.67 31.79 42.75 31.72 42.84 31.78 42.92 33.18 43 33.88 43.09 33.18 43.17 32.94 43.25 32.61 43.34 32.28 43.42 31.95 43.5 31.5 43.59 31.75 43.67 31.85 43.75 30.89 43.84 30.47 43.92 29.53 44 29.08 44.09 29.19 44.17 29.02 44.25 29.16 44.34 29.22 44.42 28.41 44.5 28.59 44.58 28.75 44.67 28.88 44.75 29.41 44.83 29.03 44.92 28.8 45 28.75 45.08 28.39 45.17 28.13 45.25 27.5 45.33 27.71 45.42 27.52 45.5 28.54 45.58 27.37 45.67 27.1 45.75 27.01 45.83 26.66 45.92 26.62 46 26.09 46.08 26.34 46.16 27.1 46.25 27.22 46.33 27.45 46.41 28.84 46.5 28.77 46.58 27.76 46.66 28.34 46.75 27.56 46.83 26.91 46.91 27.25 47 27.42 47.08 26.58 47.16 27.01 47.25 26.8 47.33 27.14 47.41 27.04 47.5 27.19 47.58 27.37 47.66 26.54 47.74 26.92 47.83 25.82 47.91 25.49 47.99 25.82 48.08 25.69 48.16 25.16 48.24 25.98 48.33 25.8 48.41 26.01 48.49 25.83 48.58 26.25 48.66 25.89 48.74 25.96 48.83 26.66 48.91 26.72 48.99 26.3 49.08 27.09 49.16 27.79 49.24 28.33 49.32 28.16 49.41 28.43 49.49 28.07 49.57 28.67 49.66 28.95 49.74 28.74 49.82 28.63 49.91 28.51 49.99 27.73 50.07 27.61 50.16 27.26 50.24 27.02 50.32 27.05 50.41 28.27 50.49 28.65 50.57 29.26 50.66 29.26 50.74 29.67 50.82 30.2 50.9 30.14 50.99 30.85 51.07 30.3 51.15 29.97 51.24 30.51 51.32 30.39 51.4 30.36 51.49 29.56 51.57 29.99 51.65 30.95 51.74 30.78 51.82 31.23 51.9 31.85 51.99 32.23 52.07 32.4 52.15 32.24 52.24 31.59 52.32 31.7 52.4 32.2 52.48 32.2 52.57 32.17 52.65 31.69 52.73 31.74 52.82 32.33 52.9 32.52 52.98 32.73 53.07 32.41 53.15 33.3 53.23 32.88 53.32 32.54 53.4 32.8 53.48 32.23 53.57 32.45 53.65 31.72 53.73 32.3 53.82 32.26 53.9 32.38 53.98 32.33 54.07 32.11 54.15 31.9 54.23 31.51 54.31 31.28 54.4 31.09 54.48 31.03 54.56 31.08 54.65 31.49 54.73 31.49 54.81 32.05 54.9 30.97 54.98 31.25 55.06 31.61 55.15 31.55 55.23 31.1 55.31 30.14 55.4 30.74 55.48 30.74 55.56 30.67 55.65 30.62 55.73 31.3 55.81 31.84 55.89 32.05 55.98 32.89 56.06 33.02 56.14 32.98 56.23 32.61 56.31 32.38 56.39 32.13 56.48 32.52 56.56 32.5 56.64 32.2 56.73 32 56.81 32.13 56.89 33.17 56.98 33.07 57.06 33.21 57.14 33.81 57.23 34.06 57.31 34.47 57.39 35.05 57.47 34.32 57.56 34.82 57.64 35.27 57.72 35.19 57.81 36.21 57.89 36.18 57.97 36.29 58.06 36.3 58.14 36.21 58.22 36.94 58.31 35.98 58.39 35.51 58.47 35.88 58.56 36.81 58.64 37 58.72 38.13 58.81 38.12 58.89 37.47 58.97 37.59 59.05 36.95 59.14 37.15 59.22 36.98 59.3 36.75 59.39 36.33 59.47 36.04 59.55 35.18 59.64 35.61 59.72 35.02 59.8 35.07 59.89 35.36 59.97 34.3 60.05 34.29 60.14 34.11 60.22 33.72 60.3 34.46 60.39 34.71 60.47 35.04 60.55 35.52 60.63 35.59 60.72 35.96 60.8 36.13 60.88 36.11 60.97 36.4 61.05 36.31 61.13 36.66 61.22 36.62 61.3 36.52 61.38 36.35 61.47 35.81 61.55 36.37 61.63 36.91 61.72 36.56 61.8 36.96 61.88 37.22 61.97 37.67 62.05 37.68 62.13 37.76 62.21 37.39 62.3 37.42 62.38 38.18 62.46 38.43 62.55 38.64 62.63 37.65 62.71 37.71 62.8 37.22 62.88 36.49 62.96 36.46 63.05 36.29 63.13 36.22 63.21 34.85 63.3 34.85 63.38 35.46 63.46 35.36 63.55 35.61 63.63 35.8 63.71 35.65 63.8 36.25 63.88 36.42 63.96 36.22 64.04 35.64 64.13 36.05 64.21 35.72 64.29 35.77 64.38 35.53 64.46 35.59 64.54 35.91 64.63 36.07 64.71 36.79 64.79 36.28 64.88 36.33 64.96 36.07 65.04 35.45 65.13 36.03 65.21 35.74 65.29 34.79 65.38 34.94 65.46 34.66 65.54 34.71 65.62 35.15 65.71 35.52 65.79 35.62 65.87 36.2 65.96 36.05 66.04 36.23 66.12 35.51 66.21 35.97 66.29 35.76 66.37 35.9 66.46 36.13 66.54 35.44 66.62 34.84 66.71 35.93 66.79 35.63 66.87 35.88 66.96 36.16 67.04 37.13 67.12 37.9 67.2 37.66 67.29 37.38 67.37 37.12 67.45 37.08 67.54 37.62 67.62 37.56 67.7 37.39 67.79 37.76 67.87 38.22 67.95 38.51 68.04 38.62 68.12 39.75 68.2 39.17 68.29 39.13 68.37 39.5 68.45 38.87 68.54 38.62 68.62 38.5 68.7 37.95 68.78 38.79 68.87 37.93 68.95 38.26 69.03 37.99 69.12 37.21 69.2 36.72 69.28 37.05 69.37 36.79 69.45 37.28 69.53 37.43 69.62 37.16 69.7 37.2 69.78 37.51 69.87 37.84 69.95 37.95 70.03 37.97 70.12 38.85 70.2 39.13 70.28 39.1 70.36 39 70.45 37.66 70.53 37.01 70.61 36.61 70.7 36.89 70.78 37.07 70.86 37.09 70.95 36.89 71.03 37.44 71.11 37.1 71.2 36.33 71.28 36.12 71.36 36.89 71.45 36.27 71.53 37.05 71.61 37.36 71.7 38.02 71.78 38.11 71.86 38.45 71.94 37.81 72.03 38.22 72.11 38.17 72.19 39.19 72.28 39.29 72.36 39.28 72.44 39.38 72.53 39.06 72.61 38.72 72.69 38.78 72.78 38.59 72.86 39.56 72.94 39 73.03 38.61 73.11 38.33 73.19 38.32 73.28 39.2 73.36 39.45 73.44 39.8 73.53 40.08 73.61 40 73.69 39.82 73.77 39.73 73.86 39.81 73.94 39.81 74.02 39.84 74.11 39.75 74.19 39.9 74.27 40 74.36 40.38 74.44 40.19 74.52 40.4 74.61 40.78 74.69 41.05 74.77 41.39 74.86 41.27 74.94 40.45 75.02 40.48 75.11 40.68 75.19 40.55 75.27 40.37 75.35 40.7 75.44 40.43 75.52 41.06 75.6 41.15 75.69 41.33 75.77 41.48 75.85 41.93 75.94 41.34 76.02 41.89 76.1 41.94 76.19 43.02 76.27 43.48 76.35 44.02 76.44 44.05 76.52 43.91 76.6 43.67 76.69 43.68 76.77 43.8 76.85 43.75 76.93 43.46 77.02 43.08 77.1 43.2 77.18 43.15 77.27 42.9 77.35 42.64 77.43 43.69 77.52 44.39 77.6 44.04 77.68 43.48 77.77 43.7 77.85 43.71 77.93 43.53 78.02 42.36 78.1 42.78 78.18 42.93 78.27 42.55 78.35 42.24 78.43 41.9 78.51 41.37 78.6 40.82 78.68 40.69 78.76 40.54 78.85 39.78 78.93 39.6 79.01 39.78 79.1 39.72 79.18 39.89 79.26 39.94 79.35 40.16 79.43 40.46 79.51 40.95 79.6 40.62 79.68 40.89 79.76 41.97 79.85 42.19 79.93 42.09 80.01 42.55 80.09 42.05 80.18 42.44 80.26 41.98 80.34 41.59 80.43 41.45 80.51 41.05 80.59 41.19 80.68 40.73 80.76 40.9 80.84 40.54 80.93 40.94 81.01 40.77 81.09 40.74 81.18 41.18 81.26 40.85 81.34 40.86 81.43 41.04 81.51 41.41 81.59 41.2 81.67 40.56 81.76 39.95 81.84 40.48 81.92 40.67 82.01 41.07 82.09 41.15 82.17 41.12 82.26 41.3 82.34 41.04 82.42 40.97 82.51 41.15 82.59 42.04 82.67 41.24 82.76 41.81 82.84 42.1 82.92 42.21 83.01 42.32 83.09 42.4 83.17 42.52 83.26 42.52 83.34 42.46 83.42 42.26 83.5 42.06 83.59 42.17 83.67 42.26 83.75 41.48 83.84 41.36 83.92 41.39 84 41.02 84.09 41.02 84.17 41.41 84.25 41.4 84.34 40.96 84.42 40.3 84.5 39.71 84.59 39.46 84.67 39.46 84.75 39.1 84.84 38.59 84.92 37.54 85 37.8 85.08 38.09 85.17 38.24 85.25 38.2 85.33 37.67 85.42 37.8 85.5 37.81 85.58 37.82 85.67 38.07 85.75 37.98 85.83 38.7 85.92 38.93 86 38.5 86.08 39.11 86.17 39.07 86.25 38.57 86.33 38.29 86.42 38.33 86.5 38.31 86.58 38.9 86.66 39.27 86.75 38.83 86.83 39.36 86.91 39.46 87 39.34 87.08 38.92 87.16 39.03 87.25 39.22 87.33 39.14 87.41 39.96 87.5 39.34 87.58 39.67 87.66 39.42 87.75 39.55 87.83 39.78 87.91 40.21 88 39.85 88.08 40.53 88.16 40.55 88.24 40.38 88.33 40.71 88.41 40.29 88.49 39.9 88.58 40.22 88.66 40.9 88.74 41.44 88.83 41.71 88.91 40.78 88.99 40.52 89.08 40.08 89.16 40.14 89.24 41.05 89.33 40.93 89.41 42.23 89.49 41.93 89.58 42.33 89.66 42.61 89.74 42.73 89.82 41.71 89.91 40.53 89.99 40.58 90.07 40.48 90.16 40.48 90.24 39.77 90.32 39.88 90.41 39.29 90.49 38.73 90.57 38.46 90.66 39.17 90.74 38.64 90.82 38.59 90.91 39.21 90.99 39.28 91.07 38.92 91.16 39 91.24 39.45 91.32 39.32 91.4 37.54 91.49 37.42 91.57 37.16 91.65 37.29 91.74 37.69 91.82 37.07 91.9 36.8 91.99 37.53 92.07 37.57 92.15 38.03 92.24 37.86 92.32 37.66 92.4 37.92 92.49 38.39 92.57 38.03 92.65 38.39 92.74 38.93 92.82 38.37 92.9 38.03 92.99 38.45 93.07 38.41 93.15 38.47 93.23 38.08 93.32 37.83 93.4 38.1 93.48 37.56 93.57 37.59 93.65 37.32 93.73 37.97 93.82 37.7 93.9 37.91 93.98 37.32 94.07 37.82 94.15 36.84 94.23 37.7 94.32 37.82 94.4 37.09 94.48 36.74 94.57 36.75 94.65 35.99 94.73 37.1 94.81 37.29 94.9 37.74 94.98 37.94 95.06 37.2 95.15 36.83 95.23 35.86 95.31 35.58 95.4 35.69 95.48 35.53 95.56 35.68 95.65 36.21 95.73 36.18 95.81 35.88 95.9 35.9 95.98 35.52 96.06 35.27 96.15 35.04 96.23 35.87 96.31 36.74 96.39 36.25 96.48 35.82 96.56 35.57 96.64 36.7 96.73 36.35 96.81 35.73 96.89 35.82 96.98 36.32 97.06 36.15 97.14 35.85 97.23 34.77 97.31 34.5 97.39 34.53 97.48 34.74 97.56 35.19 97.64 35.8 97.73 36.45 97.81 36.46 97.89 36.33 97.97 37.19 98.06 37.63 98.14 37.94 98.22 38.96 98.31 38.56 98.39 39.21 98.47 39.02 98.56 39.13 98.64 38.91 98.72 39.07 98.81 39.14 98.89 38.69 98.97 38.14 99.06 38.24 99.14 37.49 99.22 37.44 99.31 37.17 99.39 37.34 99.47 37.48 99.55 37.7 99.64 37 99.72 37.67 99.8 38.12 99.89 37.06 99.97 36.87 100.05 36.6 100.14 36.03 100.22 35.86 100.3 35.89 100.39 35.93 100.47 35.94 100.55 36.78 100.64 36.61 100.72 36.16 100.8 35.45 100.89 34.97 100.97 33.9 101.05 33.04 101.13 33.5 101.22 34.45 101.3 35.03 101.38 35.19 101.47 34.8 101.55 34.92 101.63 35.69 101.72 35.9 101.8 34.54 101.88 35.3 101.97 35.44 102.05 34.88 102.13 34.34 102.22 33.34 102.3 33.63 102.38 34.11 102.47 33.64 102.55 33.94 102.63 34.24 102.72 33.63 102.8 34.15 102.88 34.21 102.96 33.56 103.05 33.13 103.13 32.28 103.21 31.78 103.3 31.5 103.38 30.43 103.46 30.09 103.55 29.62 103.63 29.33 103.71 28.94 103.8 29.48 103.88 29.98 103.96 29.42 104.05 29.61 104.13 30.27 104.21 31.26 104.3 31.09 104.38 31.76 104.46 32.2 104.54 32.52 104.63 32.58 104.71 33.08 104.79 33.51 104.88 33.51 104.96 33.87 105.04 33.81 105.13 34.09 105.21 34.01 105.29 33.56 105.38 33.06 105.46 33.35 105.54 32.84 105.63 32.08 105.71 31.47 105.79 30.91 105.88 30.99 105.96 31.24 106.04 31.26 106.12 31.74 106.21 32.18 106.29 31.67 106.37 31.94 106.46 31.25 106.54 30.49 106.62 29.74 106.71 29.11 106.79 28.57 106.87 28.83 106.96 28.55 107.04 28.51 107.12 28.46 107.21 28.93 107.29 29.13 107.37 29.3 107.46 28.98 107.54 29.12 107.62 29.64 107.7 29.37 107.79 29.3 107.87 28.78 107.95 28.98 108.04 28.86 108.12 28.6 108.2 28.79 108.29 29.07 108.37 28.62 108.45 28.31 108.54 28.34 108.62 27.43 108.7 27.45 108.79 28.43 108.87 29.2 108.95 28.99 109.04 29 109.12 29.17 109.2 28.95 109.28 28.3 109.37 27.72 109.45 28.82 109.53 28.9 109.62 28.98 109.7 28.84 109.78 27.88 109.87 27.9 109.95 28.05 110.03 27.58 110.12 28 110.2 28.5 110.28 29.1 110.37 29.49 110.45 29.18 110.53 29.81 110.62 29.4 110.7 28.92 110.78 30.13 110.86 29.79 110.95 29.84 111.03 29.89 111.11 30.05 111.2 29.13 111.28 27.82 111.36 27.74 111.45 27.81 111.53 27.43 111.61 27.2 111.7 27.66 111.78 27.48 111.86 27.27 111.95 26.56 112.03 26.08 112.11 26.73 112.2 26.97 112.28 26.62 112.36 26.09 112.45 26.5 112.53 26.52 112.61 26.66 112.69 26.39 112.78 25.9 112.86 26.17 112.94 26.61 113.03 27.93 113.11 28.71 113.19 27.94 113.28 29.11 113.36 28.95 113.44 29.77 113.53 28.91 113.61 29.68 113.69 28.78 113.78 29.78 113.86 29.87 113.94 29.5 114.03 30.03 114.11 30.32 114.19 30.56 114.27 30.2 114.36 29.51 114.44 30.28 114.52 29.3 114.61 28.42 114.69 28.71 114.77 28.82 114.86 29.67 114.94 29.37 115.02 29.96 115.11 30.4 115.19 30.34 115.27 29.83 115.36 29.79 115.44 29.11 115.52 29.09 115.61 28.87 115.69 29.25 115.77 29.8 115.85 29.74 115.94 29.07 116.02 28.98 116.1 29.49 116.19 29.23 116.27 29.07 116.35 29.4 116.44 29.74 116.52 29.8 116.6 30.1 116.69 28.99 116.77 29.21 116.85 29.57 116.94 29.74 117.02 29.82 117.1 29.72 117.19 28.72 117.27 28.46 117.35 28.94 117.43 28.42 117.52 28.24 117.6 28.46 117.68 28.68 117.77 29.24 117.85 29.7 117.93 29.34 118.02 28.83 118.1 28.49 118.18 29 118.27 28.11 118.35 27.86 118.43 28.34 118.52 27.5 118.6 26.75 118.68 26.99 118.77 27.64 118.85 27.21 118.93 26.69 119.01 26.03 119.1 24.71 119.18 25.53 119.26 25.87 119.35 25.78 119.43 25.88 119.51 26.88 119.6 26.56 119.68 26.08 119.76 25.81 119.85 25.64 119.93 26.75 120.01 26.43 120.1 26.06 120.18 26.94 120.26 26.16 120.35 26.79 120.43 26.57 120.51 27.03 120.59 26.63 120.68 27.22 120.76 28.43 120.84 28.61 120.93 28.76 121.01 29.04 121.09 28.82 121.18 28.32 121.26 28.29 121.34 28.64 121.43 29.2 121.51 29.36 121.59 29.48 121.68 28.5 121.76 28.75 121.84 29.53 121.93 29.67 122.01 29.62 122.09 29.21 122.18 28.63 122.26 29.53 122.34 29.52 122.42 30.52 122.51 30 122.59 30.15 122.67 30.3 122.76 31.04 122.84 30.76 122.92 30.37 123.01 30.75 123.09 30.95 123.17 31.23 123.26 31.22 123.34 31.11 123.42 30.44 123.51 30.94 123.59 31.69 123.67 32.2 123.76 31.62 123.84 31.14 123.92 31.78 124 32.42 124.09 33.08 124.17 33.16 124.25 32.62 124.34 32.62 124.42 32.09 124.5 32.12 124.59 31.82 124.67 32 124.75 31.76 124.84 31.67 124.92 32.02 125 31.5 125.09 32.2 125.17 30.81 125.25 30.75 125.34 30.05 125.42 28.78 125.5 28.05 125.58 27.86" class="geometry color_" stroke="#BECAB9"/>
        <path fill="none" d="M21.63,44.35 L 21.71 44.35 21.8 43.74 21.88 43.65 21.96 43.55 22.05 43.53 22.13 43.48 22.21 43.34 22.3 43.42 22.38 42.99 22.46 43.42 22.55 43.26 22.63 42.72 22.71 42.52 22.8 42.45 22.88 42.2 22.96 41.9 23.05 42.03 23.13 41.74 23.21 40.93 23.29 41.8 23.38 41.73 23.46 41.32 23.54 41.26 23.63 41.24 23.71 41.61 23.79 41.82 23.88 42.12 23.96 42.48 24.04 42.39 24.13 42.55 24.21 42.85 24.29 42.94 24.38 43.28 24.46 44.25 24.54 44.07 24.63 43.81 24.71 43.95 24.79 44.35 24.88 44.34 24.96 43.9 25.04 42.94 25.12 43.17 25.21 43.09 25.29 43.5 25.37 43.31 25.46 43.37 25.54 43.79 25.62 44.1 25.71 43.4 25.79 43.16 25.87 43.35 25.96 43.82 26.04 44.32 26.12 43.9 26.21 43.35 26.29 43.07 26.37 42.86 26.46 42.48 26.54 42.39 26.62 42.27 26.7 42.26 26.79 42.41 26.87 42.84 26.95 43.64 27.04 43.77 27.12 43.72 27.2 43.87 27.29 44.33 27.37 43.69 27.45 43.82 27.54 43.42 27.62 43.14 27.7 42.85 27.79 43.09 27.87 43.28 27.95 43.24 28.04 42.77 28.12 42.57 28.2 43.06 28.28 43.36 28.37 43.36 28.45 43.18 28.53 43.23 28.62 42.55 28.7 42.91 28.78 42.69 28.87 42.83 28.95 42.57 29.03 42.66 29.12 42.78 29.2 43.36 29.28 42.75 29.37 42.61 29.45 42.73 29.53 43.07 29.62 43.23 29.7 43.52 29.78 43.55 29.86 43.29 29.95 43.6 30.03 44.28 30.11 44.4 30.2 44.17 30.28 44.19 30.36 44.46 30.45 44.68 30.53 44.58 30.61 44.14 30.7 44.28 30.78 43.85 30.86 42.86 30.95 43.22 31.03 43.44 31.11 42.78 31.2 42.41 31.28 41.94 31.36 41.98 31.44 41.46 31.53 42.23 31.61 42.36 31.69 42.53 31.78 42.73 31.86 43.1 31.94 42.85 32.03 42.78 32.11 43.12 32.19 43.35 32.28 43.37 32.36 43.11 32.44 42.83 32.53 42.47 32.61 42.44 32.69 42.25 32.78 42.73 32.86 43.08 32.94 43.28 33.02 43.34 33.11 42.7 33.19 42.5 33.27 42.82 33.36 42.45 33.44 41.39 33.52 41.09 33.61 42.05 33.69 41.77 33.77 41.49 33.86 41.16 33.94 41.24 34.02 41.03 34.11 40.76 34.19 40.98 34.27 41.11 34.36 40.6 34.44 40.64 34.52 41.1 34.61 40.88 34.69 39.94 34.77 40.43 34.85 40.07 34.94 39.94 35.02 40.09 35.1 40.09 35.19 40.02 35.27 40.6 35.35 40.71 35.44 40.81 35.52 40.88 35.6 41.81 35.69 41.85 35.77 41.71 35.85 41.85 35.94 41.51 36.02 41.73 36.1 41.45 36.19 41.32 36.27 41.15 36.35 40.68 36.43 40.34 36.52 39.65 36.6 39.76 36.68 39.43 36.77 39.64 36.85 39.41 36.93 39.28 37.02 38.36 37.1 37.89 37.18 38.34 37.27 38.25 37.35 38.46 37.43 38.69 37.52 38.26 37.6 37.79 37.68 37.8 37.77 38.29 37.85 38.27 37.93 37.75 38.01 38.48 38.1 38.55 38.18 37.69 38.26 37.39 38.35 37.15 38.43 36.61 38.51 37.45 38.6 36.8 38.68 37.37 38.76 37.02 38.85 37.54 38.93 37.53 39.01 37.87 39.1 38.01 39.18 38.35 39.26 38.12 39.35 37.33 39.43 37.75 39.51 37.68 39.59 37.6 39.68 37.32 39.76 37.2 39.84 36.54 39.93 36.08 40.01 36.39 40.09 36.62 40.18 36.62 40.26 36.83 40.34 36.61 40.43 36.3 40.51 36.14 40.59 35.95 40.68 36.27 40.76 36.02 40.84 35.85 40.93 35.42 41.01 36.18 41.09 35.98 41.17 36.06 41.26 35.71 41.34 35.6 41.42 35.93 41.51 36.32 41.59 36.32 41.67 36.62 41.76 36.83 41.84 37.02 41.92 36.31 42.01 36.28 42.09 35.81 42.17 35.62 42.26 36.13 42.34 36.63 42.42 36.29 42.51 36.29 42.59 36.46 42.67 36.57 42.75 36.53 42.84 36.3 42.92 36.3 43 37.02 43.09 37.46 43.17 37.84 43.25 37.67 43.34 37.2 43.42 36.97 43.5 37.06 43.59 36.97 43.67 37.52 43.75 36.95 43.84 36.58 43.92 36.44 44 36.07 44.09 35.77 44.17 35.57 44.25 36.24 44.34 35.75 44.42 35.32 44.5 34.88 44.58 35.21 44.67 35.19 44.75 35.09 44.83 35.01 44.92 34.85 45 34.56 45.08 34.38 45.17 34.3 45.25 34.75 45.33 34.88 45.42 34.07 45.5 34.54 45.58 35.13 45.67 36.08 45.75 36.43 45.83 36.41 45.92 36.41 46 37.04 46.08 37.36 46.16 36.67 46.25 35.93 46.33 35.44 46.41 36.53 46.5 36.38 46.58 36.1 46.66 36.02 46.75 36.11 46.83 35.66 46.91 34.86 47 34.65 47.08 35.22 47.16 34.94 47.25 35.43 47.33 35.26 47.41 35.15 47.5 34.63 47.58 35.04 47.66 35.03 47.74 35.05 47.83 35.2 47.91 35.16 47.99 35.35 48.08 35.44 48.16 35.27 48.24 35.27 48.33 35.38 48.41 35.19 48.49 35.23 48.58 34.07 48.66 33.4 48.74 34.21 48.83 34.12 48.91 34.42 48.99 34.92 49.08 34.56 49.16 34.75 49.24 34.77 49.32 34.03 49.41 34.11 49.49 34.48 49.57 33.73 49.66 33.54 49.74 33.17 49.82 32.8 49.91 33.39 49.99 33.53 50.07 33.66 50.16 33.64 50.24 33.26 50.32 33.32 50.41 33.22 50.49 32.92 50.57 33.42 50.66 33.36 50.74 33.09 50.82 33.46 50.9 33.43 50.99 33.43 51.07 34.22 51.15 34.21 51.24 34.4 51.32 34.53 51.4 35.21 51.49 35.44 51.57 34.45 51.65 34.73 51.74 34.65 51.82 34.92 51.9 35.13 51.99 35.39 52.07 34.54 52.15 34.76 52.24 34.65 52.32 34.17 52.4 33.63 52.48 34.19 52.57 34.09 52.65 33.58 52.73 33.61 52.82 33.84 52.9 33.15 52.98 32.78 53.07 32.53 53.15 33.33 53.23 31.97 53.32 31.43 53.4 30.68 53.48 30.53 53.57 29.54 53.65 29.73 53.73 30.31 53.82 29.91 53.9 30.29 53.98 29.88 54.07 29.58 54.15 29.21 54.23 29.35 54.31 28.81 54.4 28.85 54.48 29.34 54.56 29.04 54.65 29.06 54.73 29.12 54.81 28.93 54.9 28.83 54.98 29.21 55.06 28.9 55.15 28.46 55.23 28.68 55.31 28.93 55.4 29.25 55.48 28.99 55.56 28.63 55.65 28.99 55.73 28.36 55.81 27.85 55.89 29.36 55.98 28.4 56.06 28.82 56.14 27.79 56.23 27.41 56.31 27.83 56.39 27.63 56.48 28.28 56.56 28.62 56.64 29.51 56.73 29.85 56.81 30.05 56.89 29.55 56.98 29.31 57.06 28.7 57.14 28.14 57.23 28.85 57.31 28.7 57.39 28.57 57.47 28.16 57.56 28.12 57.64 28.77 57.72 28.82 57.81 28.48 57.89 29.09 57.97 28.31 58.06 28.1 58.14 28.02 58.22 28.09 58.31 28.38 58.39 28.31 58.47 28.63 58.56 28.43 58.64 29.14 58.72 29.47 58.81 28.94 58.89 28.65 58.97 28.92 59.05 28.4 59.14 28.36 59.22 29.05 59.3 29.08 59.39 28.55 59.47 28.12 59.55 28.32 59.64 27.71 59.72 27.01 59.8 26.81 59.89 26.82 59.97 27.09 60.05 26.97 60.14 27.83 60.22 28.05 60.3 27.61 60.39 27.37 60.47 26.75 60.55 26.28 60.63 25.33 60.72 25.23 60.8 24.76 60.88 25 60.97 24.48 61.05 24.78 61.13 26 61.22 26.34 61.3 26.18 61.38 26.87 61.47 26.5 61.55 26.33 61.63 25.57 61.72 26.62 61.8 25.9 61.88 26.12 61.97 26.4 62.05 26.64 62.13 27.4 62.21 26.34 62.3 26.33 62.38 26.1 62.46 26.11 62.55 26.75 62.63 26.56 62.71 26.44 62.8 26.17 62.88 26.26 62.96 26.73 63.05 26.26 63.13 26.03 63.21 26.17 63.3 26.17 63.38 25.99 63.46 25.64 63.55 26.1 63.63 26.43 63.71 26.08 63.8 25.94 63.88 26.32 63.96 26.46 64.04 26.26 64.13 26.64 64.21 26.73 64.29 26.74 64.38 26.82 64.46 26.85 64.54 27.15 64.63 27.57 64.71 27.67 64.79 28.08 64.88 28.29 64.96 28.48 65.04 28.09 65.13 27.8 65.21 27.69 65.29 26.69 65.38 26.76 65.46 26.56 65.54 27.62 65.62 27.48 65.71 28.95 65.79 28.84 65.87 29.38 65.96 28.94 66.04 29.2 66.12 28.19 66.21 27.98 66.29 28.01 66.37 26.72 66.46 26.72 66.54 26.06 66.62 27.35 66.71 27.79 66.79 27.17 66.87 27.32 66.96 28.12 67.04 27.66 67.12 27.99 67.2 28.08 67.29 27.89 67.37 27.35 67.45 26.61 67.54 27.2 67.62 28.25 67.7 28.87 67.79 29.61 67.87 28.77 67.95 29.01 68.04 29.83 68.12 29.84 68.2 29.38 68.29 30.07 68.37 29.96 68.45 29.26 68.54 30.17 68.62 30 68.7 30.86 68.78 30.75 68.87 30.53 68.95 30.23 69.03 29.8 69.12 29.71 69.2 30.1 69.28 29.8 69.37 31.25 69.45 31.72 69.53 30.72 69.62 31.13 69.7 31.04 69.78 31.47 69.87 31.74 69.95 31.02 70.03 31.47 70.12 31.6 70.2 31.66 70.28 31.9 70.36 31.49 70.45 31.23 70.53 31.45 70.61 31.48 70.7 31.74 70.78 32.11 70.86 31.58 70.95 31.47 71.03 30.88 71.11 30.32 71.2 31.17 71.28 31.11 71.36 31.12 71.45 32 71.53 31.47 71.61 31.96 71.7 32.4 71.78 31.85 71.86 31.65 71.94 31.48 72.03 32.25 72.11 32.21 72.19 32.4 72.28 32.12 72.36 32.06 72.44 31.78 72.53 32.43 72.61 32.66 72.69 31.77 72.78 32.17 72.86 32.61 72.94 33.15 73.03 33.44 73.11 33.4 73.19 32.55 73.28 32.24 73.36 32.73 73.44 32.81 73.53 32.97 73.61 32.52 73.69 32.61 73.77 32.19 73.86 32.43 73.94 32.35 74.02 33.11 74.11 32.83 74.19 33.01 74.27 33.21 74.36 32.91 74.44 33.74 74.52 33.95 74.61 34.11 74.69 34.15 74.77 33.96 74.86 33.72 74.94 33.23 75.02 33.58 75.11 33.65 75.19 33.51 75.27 32.86 75.35 32.68 75.44 32.81 75.52 32.7 75.6 32.41 75.69 31.99 75.77 32.04 75.85 32.51 75.94 32.76 76.02 33.44 76.1 33.97 76.19 34.32 76.27 34.12 76.35 34.94 76.44 34.83 76.52 35.07 76.6 34.65 76.69 35.13 76.77 34.11 76.85 34.72 76.93 35.38 77.02 34.14 77.1 34.13 77.18 34.65 77.27 34.46 77.35 35.21 77.43 34.93 77.52 34.68 77.6 34.17 77.68 33.39 77.77 33.81 77.85 33.9 77.93 33.8 78.02 33.35 78.1 33.58 78.18 32.75 78.27 31.84 78.35 31.16 78.43 31.68 78.51 32.13 78.6 31.69 78.68 31.9 78.76 31.86 78.85 32.26 78.93 32.5 79.01 32.51 79.1 32.36 79.18 32.51 79.26 32.73 79.35 33.67 79.43 33.29 79.51 34.28 79.6 34.56 79.68 35.3 79.76 35.32 79.85 34.6 79.93 34.58 80.01 35.32 80.09 35.54 80.18 35.19 80.26 35.11 80.34 35.81 80.43 35.98 80.51 35.97 80.59 36.01 80.68 35.98 80.76 36.17 80.84 36.22 80.93 36.23 81.01 36.06 81.09 36.02 81.18 36.93 81.26 36.35 81.34 36.94 81.43 36.61 81.51 36.29 81.59 35.59 81.67 35.3 81.76 36.15 81.84 35.71 81.92 35.52 82.01 36.27 82.09 37.53 82.17 37.81 82.26 38.23 82.34 38.64 82.42 39.09 82.51 38.65 82.59 39.51 82.67 39.88 82.76 40.37 82.84 40.4 82.92 41.56 83.01 41.46 83.09 41.82 83.17 41.57 83.26 41.39 83.34 41.58 83.42 41.57 83.5 41.17 83.59 41.5 83.67 40.81 83.75 40.5 83.84 40.57 83.92 40.13 84 39.79 84.09 39.79 84.17 39.79 84.25 39.83 84.34 39.67 84.42 38.94 84.5 38.97 84.59 38.12 84.67 37.79 84.75 38.35 84.84 38.18 84.92 38.06 85 38.76 85.08 38.89 85.17 39.36 85.25 39.06 85.33 39.44 85.42 39.38 85.5 39.23 85.58 38.94 85.67 38.78 85.75 39.09 85.83 38.96 85.92 39.2 86 38.71 86.08 38.34 86.17 37.88 86.25 37.77 86.33 38.13 86.42 37.99 86.5 39.02 86.58 38.7 86.66 38.08 86.75 37.79 86.83 37.52 86.91 38.05 87 38.01 87.08 37.87 87.16 37.66 87.25 37 87.33 37.11 87.41 37.1 87.5 36.76 87.58 36.03 87.66 35.74 87.75 36.31 87.83 36.76 87.91 37.5 88 37.23 88.08 36.62 88.16 36.28 88.24 35.92 88.33 36.16 88.41 36.81 88.49 36.75 88.58 36.84 88.66 36.84 88.74 36.05 88.83 36.09 88.91 35.35 88.99 35.32 89.08 35.25 89.16 35.4 89.24 35.57 89.33 35.68 89.41 35.76 89.49 34.84 89.58 34.61 89.66 34.75 89.74 35.23 89.82 35.52 89.91 35.7 89.99 35.99 90.07 36.27 90.16 35.74 90.24 35.17 90.32 34.85 90.41 35.36 90.49 35.34 90.57 35.87 90.66 35.34 90.74 35.39 90.82 34.76 90.91 34.94 90.99 34.24 91.07 34.55 91.16 34.32 91.24 34.7 91.32 34.68 91.4 34.6 91.49 33.76 91.57 33.83 91.65 34.1 91.74 33.5 91.82 32.87 91.9 32.53 91.99 31.56 92.07 31.73 92.15 32.89 92.24 32.68 92.32 32.62 92.4 32.29 92.49 32.03 92.57 31.96 92.65 32.19 92.74 32.25 92.82 32.77 92.9 32.6 92.99 32.89 93.07 32.53 93.15 32.46 93.23 33.45 93.32 33.94 93.4 34.23 93.48 33.71 93.57 34.15 93.65 34.3 93.73 34.27 93.82 33.52 93.9 33.59 93.98 33.88 94.07 33.68 94.15 34.56 94.23 33.9 94.32 34.23 94.4 34.43 94.48 34.6 94.57 35.37 94.65 34.45 94.73 34.16 94.81 34.47 94.9 34.39 94.98 34.21 95.06 34.01 95.15 33.82 95.23 33.69 95.31 32.73 95.4 32.95 95.48 32.85 95.56 32.98 95.65 32.59 95.73 32.67 95.81 33.87 95.9 33.42 95.98 32.58 96.06 32.77 96.15 32.41 96.23 32.36 96.31 31.87 96.39 32.01 96.48 31.99 96.56 32.22 96.64 32.17 96.73 31.91 96.81 31.85 96.89 32.13 96.98 32.2 97.06 31.52 97.14 31.39 97.23 30.87 97.31 31.24 97.39 31.31 97.48 31.96 97.56 31.57 97.64 32.11 97.73 31.5 97.81 30.71 97.89 30.86 97.97 30.48 98.06 31.09 98.14 30.39 98.22 30.98 98.31 29.99 98.39 30.09 98.47 29.11 98.56 28.74 98.64 28.02 98.72 27.96 98.81 28.39 98.89 28.56 98.97 27.87 99.06 27.16 99.14 27.33 99.22 27.41 99.31 27.55 99.39 26.86 99.47 27.6 99.55 27.33 99.64 27.52 99.72 27.22 99.8 26.98 99.89 27.76 99.97 28.05 100.05 27.57 100.14 27.32 100.22 27.54 100.3 27.55 100.39 28.54 100.47 28.63 100.55 28.91 100.64 28.74 100.72 28.71 100.8 28.4 100.89 29.41 100.97 29.44 101.05 30.37 101.13 29.63 101.22 29.65 101.3 29.59 101.38 29.65 101.47 29.52 101.55 29.62 101.63 30.03 101.72 30.73 101.8 31.5 101.88 31.41 101.97 30.97 102.05 31.5 102.13 32.01 102.22 31.33 102.3 31.23 102.38 31.66 102.47 31.87 102.55 31.92 102.63 31.39 102.72 31.96 102.8 32.18 102.88 31.82 102.96 31.86 103.05 32.54 103.13 32.74 103.21 33.35 103.3 33.24 103.38 33.6 103.46 32.58 103.55 32.49 103.63 32.22 103.71 32.52 103.8 32.35 103.88 32.21 103.96 32.81 104.05 32.74 104.13 32.4 104.21 32.95 104.3 33.66 104.38 33.46 104.46 34.08 104.54 34.02 104.63 34.02 104.71 33.65 104.79 33.99 104.88 33.99 104.96 33.21 105.04 32.14 105.13 32.35 105.21 33.11 105.29 33.04 105.38 32.52 105.46 32.77 105.54 33.3 105.63 33.27 105.71 33.15 105.79 33.64 105.88 33.6 105.96 33.73 106.04 33.64 106.12 33.33 106.21 31.86 106.29 32.4 106.37 31.29 106.46 30.82 106.54 29.88 106.62 29.85 106.71 29.89 106.79 30.56 106.87 30.56 106.96 30.33 107.04 30.39 107.12 30.57 107.21 30.02 107.29 29.79 107.37 29.18 107.46 28.38 107.54 28.75 107.62 29.27 107.7 29.59 107.79 28.91 107.87 28.36 107.95 28.17 108.04 28.23 108.12 28.75 108.2 27.91 108.29 27.51 108.37 26.91 108.45 26.37 108.54 26.44 108.62 27.6 108.7 29.24 108.79 29.48 108.87 29.88 108.95 30.15 109.04 29.23 109.12 29.24 109.2 28.76 109.28 28.87 109.37 28.69 109.45 29.25 109.53 27.91 109.62 27.37 109.7 27.22 109.78 27.37 109.87 26.45 109.95 26.25 110.03 26.35 110.12 26.71 110.2 27.6 110.28 28.55 110.37 29.26 110.45 30.2 110.53 29.86 110.62 30.14 110.7 30.1 110.78 30.75 110.86 30.77 110.95 30.72 111.03 31.28 111.11 30.9 111.2 30.74 111.28 31.58 111.36 32.47 111.45 32.77 111.53 33.45 111.61 33.58 111.7 33.65 111.78 33.71 111.86 34.03 111.95 33.28 112.03 32.82 112.11 33.34 112.2 33.32 112.28 33.62 112.36 33.27 112.45 32.74 112.53 32.87 112.61 33.12 112.69 32.9 112.78 32.82 112.86 32.65 112.94 32.39 113.03 31.97 113.11 32.3 113.19 33.04 113.28 33.1 113.36 33.45 113.44 33.69 113.53 33.9 113.61 34.24 113.69 33.99 113.78 34.16 113.86 33.99 113.94 32.94 114.03 33.35 114.11 33.28 114.19 33.9 114.27 33.45 114.36 33.15 114.44 32.95 114.52 33.4 114.61 33.02 114.69 32.74 114.77 32.99 114.86 31.67 114.94 31.46 115.02 31.62 115.11 31.65 115.19 32.1 115.27 31.78 115.36 31.89 115.44 32.09 115.52 31.74 115.61 31.49 115.69 31.43 115.77 30.97 115.85 30.68 115.94 30.18 116.02 30.61 116.1 30.7 116.19 30.59 116.27 30.96 116.35 30.93 116.44 31.79 116.52 32.58 116.6 32.22 116.69 31.7 116.77 31.95 116.85 31.87 116.94 32.14 117.02 31.97 117.1 32.67 117.19 31.43 117.27 31.03 117.35 30.51 117.43 30.57 117.52 31.76 117.6 31.69 117.68 31.93 117.77 32.54 117.85 33.34 117.93 33.76 118.02 34.79 118.1 35.38 118.18 35.01 118.27 35.01 118.35 34.6 118.43 35.18 118.52 35.88 118.6 36.65 118.68 36.38 118.77 35.73 118.85 35.67 118.93 35.41 119.01 35.11 119.1 35.73 119.18 34.79 119.26 35.11 119.35 35.56 119.43 35.94 119.51 37.02 119.6 37.22 119.68 37.39 119.76 36.73 119.85 36.23 119.93 35.98 120.01 36.23 120.1 36.25 120.18 35.78 120.26 35.42 120.35 35.24 120.43 35.82 120.51 35.09 120.59 33.92 120.68 33.08 120.76 32.81 120.84 32.9 120.93 33.45 121.01 33.33 121.09 34.63 121.18 34.79 121.26 34.74 121.34 34.4 121.43 33.99 121.51 34.63 121.59 34.08 121.68 33.94 121.76 34.11 121.84 33.85 121.93 33.41 122.01 33.51 122.09 33.25 122.18 33.34 122.26 32.93 122.34 33.74 122.42 33.3 122.51 33.57 122.59 34.23 122.67 33.63 122.76 33.96 122.84 34.27 122.92 34.12 123.01 34.17 123.09 34.69 123.17 34.8 123.26 34.38 123.34 33.94 123.42 33.85 123.51 33.58 123.59 32.59 123.67 32.48 123.76 31.93 123.84 32.49 123.92 31.62 124 31.98 124.09 31.5 124.17 31.97 124.25 31.23 124.34 32.02 124.42 31.91 124.5 32.66 124.59 33.19 124.67 32.7 124.75 33.16 124.84 33.68 124.92 33.16 125 33.29 125.09 32.91 125.17 32.72 125.25 32.4 125.34 32.56 125.42 32.6 125.5 33.28 125.58 33.62" class="geometry color_" stroke="#D2B497"/>
      </g>
    </g>
  </g>
  <g class="guide ylabels" font-size="2.82" font-family="'PT Sans Caption','Helvetica Neue','Helvetica',sans-serif" fill="#6C606B" id="fig-7aaa8130fd5d4b6da423c495113b6271-element-15">
    <text x="18.63" y="83.39" text-anchor="end" dy="0.35em">0</text>
    <text x="18.63" y="64.29" text-anchor="end" dy="0.35em">50</text>
    <text x="18.63" y="45.19" text-anchor="end" dy="0.35em">100</text>
    <text x="18.63" y="26.1" text-anchor="end" dy="0.35em">150</text>
    <text x="18.63" y="7" text-anchor="end" dy="0.35em">200</text>
  </g>
  <g font-size="3.88" font-family="'PT Sans','Helvetica Neue','Helvetica',sans-serif" fill="#564A55" stroke="#000000" stroke-opacity="0.000" id="fig-7aaa8130fd5d4b6da423c495113b6271-element-16">
    <text x="8.81" y="43.19" text-anchor="middle" dy="0.35em" transform="rotate(-90, 8.81, 45.19)">Value</text>
  </g>
</g>
<defs>
<clipPath id="fig-7aaa8130fd5d4b6da423c495113b6271-element-9">
  <path d="M19.63,5 L 127.58 5 127.58 85.39 19.63 85.39" />
</clipPath
></defs>
</svg>
